<svg width="1096" height="568" viewBox="0 0 1096 568" fill="none" xmlns="http://www.w3.org/2000/svg">
<rect width="1096" height="568" fill="#1B1613" fill-opacity="0.41"/>
<path fill-rule="evenodd" clip-rule="evenodd" d="M375.143 327.77C352.076 342.662 324.925 355.393 296.095 363.569C251.648 376.539 212.243 376.539 186.051 366.207C211.041 371.497 243.954 369.57 280.235 359C305.376 351.794 329.453 341.291 351.837 327.766H375.143V327.77ZM396.289 187.447C427.041 193.934 446.264 211.23 445.3 236.94C445.062 241.748 444.098 246.79 442.658 251.842H425.119C427.761 245.354 429.206 238.624 429.445 232.142C430.165 211.235 417.673 195.856 396.289 187.447Z" fill="white"/>
<path fill-rule="evenodd" clip-rule="evenodd" d="M137.035 316.952C138.48 270.101 205.274 213.395 286.007 190.089C330.697 177.115 370.102 177.115 396.293 187.447C371.06 182.162 338.147 184.322 301.867 194.654C221.135 218.204 154.34 274.904 152.9 321.522C152.18 342.424 164.672 357.797 186.056 366.212C155.056 359.724 136.072 342.658 137.035 316.952V316.952Z" fill="white"/>
<path fill-rule="evenodd" clip-rule="evenodd" d="M249.001 286.195C249.001 295.816 244.198 303.983 236.265 303.983C224.731 303.983 220.648 288.847 220.648 278.515C220.648 271.303 223.529 260.976 233.384 260.976C245.395 260.972 249.001 275.864 249.001 286.195ZM260.773 282.594C260.773 266.734 250.923 252.319 234.825 252.319C220.171 252.319 208.876 264.573 208.876 281.387C208.876 297.491 218.487 312.383 234.348 312.383C248.519 312.383 260.773 301.092 260.773 282.594V282.594ZM288.406 273.946H292.251C297.779 273.946 301.38 276.111 301.38 281.392C301.38 287.402 297.774 288.847 289.126 290.045V290.293C292.971 296.293 297.779 303.501 301.137 310.708C303.303 310.708 305.464 310.47 307.386 310.47C309.547 310.47 311.474 310.708 313.635 310.708V309.263C311.951 309.511 310.992 308.552 309.79 306.625L299.94 291.724C308.106 289.32 310.272 284.764 310.272 279.474C310.272 271.785 304.986 268.179 298.018 268.179H276.634V269.381C278.795 269.381 279.515 270.345 279.515 272.262V304.703C279.515 308.066 279.033 309.024 276.634 309.506V310.704C279.272 310.704 281.68 310.465 283.841 310.465C286.002 310.465 288.406 310.704 292.251 310.704V309.506C288.645 308.786 288.406 308.061 288.406 305.662V273.946V273.946ZM321.081 310.704C323.241 310.704 325.168 310.465 327.324 310.465C329.247 310.465 331.408 310.704 333.573 310.704V309.506C331.408 309.506 330.692 308.547 330.692 307.341C330.692 306.62 330.931 305.895 331.174 305.175L333.816 297.247H345.589L347.511 303.735C347.75 304.455 347.993 306.148 347.993 307.107C347.993 308.552 347.273 309.024 345.112 309.511V310.708C347.516 310.708 350.158 310.47 352.801 310.47C355.205 310.47 357.848 310.708 360.49 310.708V309.511C358.568 309.024 357.604 308.066 356.884 305.18L345.832 267.697C343.922 267.978 341.996 268.139 340.065 268.179C338.143 268.179 336.459 267.94 334.537 267.697V268.899C335.074 268.883 335.598 269.073 336 269.431C336.401 269.788 336.651 270.286 336.697 270.822C336.697 271.303 336.216 272.262 335.977 273.226L324.205 306.382C323.485 308.3 322.76 309.258 321.081 309.506V310.704V310.704ZM335.495 292.205C337.179 287.402 339.102 282.112 340.542 276.827C341.744 283.553 342.703 287.874 344.148 292.205H335.495ZM373.221 306.62C373.221 308.547 372.501 309.506 370.579 309.506V310.704C372.501 310.704 374.423 310.465 376.346 310.465C378.268 310.465 380.19 310.704 382.113 310.704V309.506C380.667 309.506 378.506 309.258 378.506 305.9V277.304H378.745L398.688 310.704H404.937V271.78C404.937 269.858 405.657 269.138 407.818 268.899V267.697C405.896 267.94 403.735 268.179 401.813 268.179C399.89 268.179 397.968 267.94 396.046 267.697V268.899C397.725 268.899 399.652 269.138 399.652 272.744V296.289L383.071 267.697C381.149 268.179 379.47 268.179 377.786 268.179C375.625 268.179 373.221 267.94 370.579 267.697V268.899C372.501 269.138 373.221 269.858 373.221 271.78V306.62V306.62ZM448.663 300.133C448.663 303.258 446.503 305.423 442.176 305.423C435.207 305.423 430.881 296.77 430.881 288.361C430.881 279.708 434.969 272.505 443.374 272.505C448.42 272.505 453.467 275.391 454.187 281.392H455.632C455.389 276.827 455.389 272.744 455.389 269.62C452.026 267.459 447.943 266.734 443.855 266.734C430.881 266.734 421.99 275.625 421.99 290.04C421.99 302.051 429.202 311.91 440.493 311.91C444.58 311.91 448.663 310.465 452.508 306.62L453.71 310.704H457.316V295.812C457.316 292.687 458.28 292.205 460.441 292.205V290.526C457.798 290.765 455.155 291.003 452.513 291.003C449.87 291.003 447.466 290.765 445.067 290.526V292.205C447.709 292.444 448.668 292.444 448.668 295.091V300.133H448.663V300.133ZM476.535 306.382C476.535 308.3 475.819 309.02 473.653 309.02V310.465H505.126C505.369 306.62 505.369 303.258 505.846 297.729H504.406C503.442 303.258 502.483 304.455 499.12 304.455H485.43V291.485H493.597C496.239 291.485 496.721 292.444 497.203 294.848H498.166C498.166 293.169 497.923 290.288 497.923 288.361C497.923 286.682 498.166 283.791 498.166 282.112H497.203C496.721 284.516 496.239 285.475 493.597 285.475H485.43V273.946H498.405C501.768 273.946 502.493 275.143 503.208 278.988H504.41C503.929 275.386 503.929 271.78 503.929 268.179H473.653V269.381C475.819 269.381 476.535 270.345 476.535 272.262V306.382V306.382Z" fill="#C8693A"/>
<path fill-rule="evenodd" clip-rule="evenodd" d="M557.505 310.942H566.878L574.324 279.956L581.779 310.942H590.905L603.884 261.21C604.842 257.127 606.288 255.686 608.687 255.448V253.764C606.04 254.002 603.397 254.484 600.759 254.484C598.112 254.484 595.469 254.002 592.831 253.764V255.686C594.988 255.686 596.667 256.168 596.667 259.049C596.667 260.012 596.19 262.412 595.708 264.334L588.5 296.054H588.262L581.293 263.375C581.054 261.93 580.816 260.494 580.816 259.049C580.816 256.645 582.013 255.443 585.138 255.443V253.759C581.532 253.998 577.93 254.479 574.324 254.479C570.723 254.479 567.117 253.998 563.515 253.759V255.443C566.392 255.443 568.085 256.406 568.796 260.246L571.2 269.858L564.713 295.811H564.474L557.505 266.013C557.028 263.127 556.06 260.246 556.06 257.842C556.06 256.158 557.748 255.681 558.946 255.438V253.754C555.821 253.993 552.697 254.475 549.577 254.475C546.214 254.475 543.09 253.993 539.966 253.754V255.2C542.608 255.438 543.572 256.64 544.531 261.205L557.505 310.942V310.942ZM622.382 306.62C622.382 308.547 621.661 309.506 619.734 309.506V310.703C622.382 310.703 624.786 310.465 626.951 310.465C629.107 310.465 631.511 310.703 634.159 310.703V309.506C631.993 309.506 631.273 308.547 631.273 306.62V271.78C631.273 269.858 631.993 269.137 634.159 268.899V267.697C631.511 267.94 629.107 268.179 626.951 268.179C624.786 268.179 622.382 267.94 619.734 267.697V268.899C621.661 269.137 622.382 269.858 622.382 271.78V306.62ZM651.212 306.62C651.212 308.547 650.491 309.506 648.326 309.506V310.703C650.253 310.703 652.17 310.465 654.336 310.465C656.015 310.465 657.942 310.703 660.098 310.703V309.506C658.419 309.506 656.497 309.258 656.497 305.9V277.304L676.44 310.703H682.927V271.78C682.927 269.858 683.647 269.137 685.565 268.899V267.697C683.656 267.979 681.732 268.139 679.803 268.179C677.885 268.179 675.958 267.94 674.041 267.697V268.899C675.486 268.899 677.642 269.137 677.642 272.744V296.288H677.404L660.823 267.697C658.905 268.179 657.222 268.179 655.543 268.179C653.377 268.179 650.973 267.94 648.326 267.697V268.899C650.491 269.137 651.212 269.858 651.212 271.78V306.62V306.62ZM702.632 306.382C702.632 308.299 701.912 309.019 699.746 309.019V310.465H731.223C731.223 306.62 731.462 303.257 731.944 297.729H730.498C729.54 303.257 728.333 304.455 725.209 304.455H711.514V291.485H719.68C722.327 291.485 722.804 292.444 723.043 294.848H724.25C724.011 293.169 724.011 290.288 724.011 288.361C724.011 286.681 724.011 283.791 724.25 282.112H723.043C722.804 284.516 722.332 285.475 719.68 285.475H711.514V273.946H724.484C727.846 273.946 728.567 275.143 729.287 278.988H730.246C730.007 275.386 730.007 271.78 729.769 268.179H699.732V269.381C701.898 269.381 702.618 270.344 702.618 272.262V306.382H702.632V306.382ZM768.463 303.023C768.463 307.107 767.986 308.552 764.627 309.263V310.942C768.463 310.703 771.587 310.465 774.473 310.465C777.359 310.465 780.483 310.703 785.525 310.942V309.263C780.955 308.304 780.235 307.107 780.235 303.982V286.195H788.163C793.691 286.195 794.412 287.874 794.65 291.967H796.338C796.091 288.361 795.852 285.47 795.852 282.594C795.852 279.708 796.091 276.827 796.338 273.941H794.65C794.412 277.547 793.691 278.983 790.09 278.983H780.235V262.169H796.577C800.899 262.169 802.105 263.848 802.826 268.656H804.271C804.023 263.852 803.784 259.287 803.784 254.479H764.861V256.158C767.499 256.158 768.463 257.36 768.463 259.765V303.023V303.023ZM819.406 296.527C819.406 308.065 825.168 311.91 835.977 311.91C846.791 311.91 852.558 308.065 852.558 295.568V271.785C852.558 269.862 853.278 269.142 855.205 268.904V267.702C852.894 268.008 850.567 268.169 848.236 268.183C845.587 268.167 842.94 268.006 840.308 267.702V268.904C842.946 269.142 843.671 269.624 843.671 272.267V297.018C843.671 304.464 840.795 305.904 835.977 305.904C830.935 305.904 828.293 304.459 828.293 297.018V272.267C828.293 269.624 828.77 269.147 831.417 268.904V267.702C829.013 267.945 826.614 268.183 823.489 268.183C820.842 268.183 818.438 267.945 816.52 267.702V268.904C818.686 269.142 819.406 269.862 819.406 271.785V296.527V296.527ZM871.781 306.62C871.781 308.547 871.07 309.506 869.143 309.506V310.703C871.07 310.703 872.987 310.465 874.905 310.465C876.832 310.465 878.75 310.703 880.677 310.703V309.506C878.998 309.506 877.071 309.258 877.071 305.9V277.304L897.014 310.703H903.501V271.78C903.501 269.858 904.221 269.137 906.148 268.899V267.697C904.236 267.978 902.309 268.139 900.377 268.179C898.459 268.179 896.541 267.94 894.614 267.697V268.899C896.294 268.899 898.221 269.137 898.221 272.744V296.288H897.973L881.402 267.697C879.713 268.179 877.795 268.179 876.112 268.179C873.946 268.179 871.542 267.94 869.143 267.697V268.899C871.07 269.137 871.781 269.858 871.781 271.78V306.62V306.62ZM923.201 306.382C923.201 308.299 922.481 309.019 920.563 309.019V310.465H937.855C948.907 310.465 959 302.051 959 288.842C959 273.941 948.907 268.179 938.823 268.179H920.563V269.381C922.481 269.381 923.201 270.344 923.201 272.262V306.382V306.382ZM932.088 273.946H935.694C945.787 273.946 950.109 281.153 950.109 290.765C950.109 298.211 944.347 304.459 936.653 304.459H932.083V273.946H932.088V273.946Z" fill="white"/>
</svg>
