<svg width="166" height="32" viewBox="0 0 166 32" fill="none" xmlns="http://www.w3.org/2000/svg">
<path d="M53.69 9.31C53.1 10.02 54.11 12.05 56.33 14.67L57.65 16.22L55.08 16.23C52.1 16.24 50.18 16.75 48.24 18.05C47.01 18.87 46.91 18.89 44.36 18.89C41.39 18.89 38.71 19.54 35.19 21.09C30.39 23.22 26.06 24.77 24.11 25.06C22.27 25.33 21.93 25.31 20.13 24.78C17.63 24.04 16.37 23.31 14.93 21.77L13.8 20.56L15.21 20.36C17.03 20.1 18.63 19.31 19.37 18.31C21.58 15.34 20.47 11.76 17.34 11.76C14.85 11.76 11.9 14.79 11.9 17.34C11.9 17.78 11.81 18.12 11.7 18.12C11.59 18.12 10.4 17.88 9.09001 17.59C5.19001 16.74 3.17001 17.18 1.67001 19.23C1.05001 20.08 0.920008 20.48 1.03001 21.17C1.32001 22.96 2.24001 22.84 2.95001 20.93C3.81001 18.58 5.74001 18.11 9.64001 19.3L11.87 19.98L12.52 21.31C14.95 26.29 21.45 28 28.58 25.53L30.69 24.8L29.73 25.96C28.05 28 27.34 30.04 28.01 30.96C28.45 31.57 29.19 31.4 30.81 30.32C33.51 28.53 35.46 26.08 36.34 23.37L36.76 22.08L39.03 21.34C40.49 20.87 42.1 20.55 43.53 20.47L45.76 20.34L45.38 21.26C44.93 22.35 44.88 25.31 45.29 26.55C45.72 27.83 46.61 28.9 47.99 29.79C51.67 32.15 55.94 30.58 55.94 26.87C55.94 24.75 53.83 21.93 51.14 20.46L49.78 19.72L50.65 19.18C54.51 16.8 58.97 17.58 67.14 22.07C72.69 25.12 76.43 25.95 79.12 24.73C80.5 24.1 81.4 23.29 81.4 22.67C81.4 22.07 81.08 22.08 79.22 22.76C77.35 23.44 73.95 23.5 72.28 22.88C71.68 22.66 69.96 21.73 68.46 20.82C66.96 19.91 64.7 18.7 63.43 18.12L61.13 17.07L60.41 15.4C58.7 11.47 54.81 7.95 53.69 9.31ZM56.99 11.96C57.61 12.65 58.43 13.79 58.83 14.54C59.47 15.73 59.5 15.85 59.05 15.61C58.29 15.2 55.64 12.22 54.97 11.01L54.37 9.94L55.12 10.33C55.53 10.54 56.37 11.28 56.99 11.96ZM17.87 13.83C18.5 14.32 18.56 14.5 18.44 15.5C18.23 17.36 16.85 18.39 14.57 18.39C13.43 18.39 13.43 18.39 13.43 17.49C13.43 15.99 14.72 14.18 16.22 13.57C17.09 13.22 17.09 13.22 17.87 13.83ZM50.24 21.95C53.71 23.94 55.14 28.43 52.59 29.32C50.99 29.88 47.89 28.19 46.87 26.2C46.61 25.69 46.54 25.16 46.65 24.53C46.88 23.24 48.04 21.19 48.52 21.2C48.75 21.19 49.52 21.53 50.24 21.95ZM34.76 24.28C33.79 26.1 31.98 28.16 30.24 29.44C29.56 29.94 28.94 30.34 28.86 30.34C28.68 30.34 29.08 29.03 29.48 28.28C30.2 26.95 34.67 22.7 35.36 22.7C35.49 22.7 35.22 23.4 34.76 24.28Z" fill="#C8693A"/>
<path d="M111.5 9.35C111.05 9.54 110.26 10.02 109.78 10.39C108.72 11.2 106.66 14.22 106.03 15.89C105.56 17.13 105.56 17.13 102.56 18.45C101.79 18.79 99.77 19.9 98.1 20.9C96.43 21.9 94.58 22.87 94.03 23.03C92.24 23.56 89.4 23.43 87.46 22.74C86.1 22.25 85.67 22.19 85.42 22.44C84.98 22.88 85.42 23.46 86.85 24.35C87.79 24.94 88.43 25.11 89.93 25.21C92.56 25.39 94.39 24.77 100.14 21.81C105.77 18.91 107.83 18.15 110.59 17.95C112.8 17.79 114.34 18.14 116.02 19.18L116.87 19.7L115.37 20.59C111.3 22.99 109.61 26.95 111.64 29.36C112.56 30.45 113.6 30.91 115.15 30.91C117.6 30.91 120.25 29.25 121.19 27.13C121.84 25.68 121.89 22.39 121.28 21.21L120.84 20.36L123.08 20.49C124.6 20.58 126.05 20.86 127.58 21.35L129.84 22.08L130.39 23.61C131.11 25.6 132.19 27.14 134.05 28.87C135.97 30.64 137.76 31.62 138.37 31.23C139.41 30.56 138.69 27.97 136.88 25.94L135.87 24.8L138.03 25.55C145.16 28.04 151.87 26.28 154.13 21.33L154.74 20L157.04 19.29C160.97 18.09 162.92 18.61 163.77 21.09C164.41 22.95 165.69 22.84 165.69 20.92C165.69 20.1 165.5 19.73 164.61 18.81C162.88 17.03 161.52 16.8 157.57 17.63C156.26 17.9 155.07 18.07 154.95 18C154.83 17.93 154.73 17.5 154.73 17.04C154.73 15.88 153.3 13.61 151.99 12.7C151.22 12.16 150.54 11.92 149.52 11.83C148.19 11.71 148.07 11.75 147.24 12.58C144.43 15.39 147.53 20.44 152.06 20.44H152.71L152.25 21.24C151.6 22.36 150.12 23.45 148.11 24.29C145.81 25.25 143.88 25.43 141.61 24.9C139.46 24.4 134.84 22.7 132.56 21.57C131.65 21.12 129.77 20.38 128.36 19.92C126.19 19.21 125.35 19.07 122.69 18.97C119.63 18.86 119.53 18.84 118.28 17.99C116.38 16.71 114.57 16.24 111.54 16.24H108.97L110.13 14.95C112.43 12.4 113.6 10.11 112.96 9.35C112.6 8.89 112.57 8.89 111.5 9.35ZM111.58 11.33C110.78 12.54 107.67 15.84 107.33 15.84C107.05 15.84 108.22 13.78 109.26 12.44C110.05 11.42 111.97 9.89 112.18 10.11C112.25 10.18 111.98 10.72 111.58 11.33ZM151.37 14.09C152.39 14.7 153.15 15.93 153.36 17.31L153.52 18.38H152.21C149.81 18.38 148.52 17.45 148.21 15.49C148.09 14.74 148.18 14.48 148.75 13.91C149.48 13.19 149.91 13.22 151.37 14.09ZM119.25 22.35C119.63 23 119.99 24.07 120.05 24.75C120.15 25.91 120.1 26.03 119.06 27.16C115.02 31.55 110.69 28.98 113.95 24.13C114.67 23.06 117.32 21.17 118.1 21.17C118.37 21.17 118.84 21.64 119.25 22.35ZM134.73 25.4C136.06 26.67 136.85 27.67 137.31 28.67C137.68 29.47 137.92 30.17 137.86 30.23C137.63 30.46 135.35 28.73 134.14 27.39C132.88 26.01 131.31 23.56 131.31 22.98C131.31 22.48 132.7 23.46 134.73 25.4Z" fill="#C8693A"/>
<mask id="path-3-outside-1" maskUnits="userSpaceOnUse" x="76" y="0" width="14" height="18" fill="black">
<rect fill="white" x="76" width="14" height="18"/>
<path fill-rule="evenodd" clip-rule="evenodd" d="M79.5974 5.27754C79.8123 5.27754 80.0228 5.30454 80.2252 5.35526C80.3579 5.38853 80.4869 5.43223 80.6113 5.48556C80.7155 5.32968 80.8341 5.18457 80.9656 5.05219C81.4319 4.58226 82.0577 4.27287 82.7539 4.21331C82.751 3.91607 82.7701 3.63786 82.8075 3.37595C82.6464 3.46413 82.4751 3.53334 82.297 3.58138C81.9154 3.68439 81.5025 3.69086 81.0938 3.58138C80.6844 3.47087 80.3298 3.2572 80.0506 2.97592C80.046 2.97104 80.0415 2.96617 80.0374 2.96139C79.7549 2.67186 79.5507 2.31277 79.4464 1.92151C79.4221 1.82982 79.4533 1.73646 79.5195 1.67756C79.8072 1.39167 80.1651 1.18493 80.5553 1.07966C80.9369 0.976696 81.3498 0.970249 81.7586 1.07966C82.1671 1.18997 82.5214 1.40366 82.8009 1.68515C82.9374 1.82274 83.0561 1.9768 83.1546 2.14305C83.3062 1.79366 83.4927 1.47698 83.7001 1.18015C83.7763 1.07088 83.9262 1.04462 84.0347 1.12142C84.1431 1.19819 84.1692 1.34932 84.0929 1.45858C83.8239 1.8437 83.5942 2.26239 83.4408 2.74509C83.4292 2.78138 83.4181 2.81814 83.4074 2.85518C83.405 2.86395 83.4029 2.87314 83.3999 2.88173C83.2896 3.2747 83.2281 3.71282 83.2332 4.21209C83.9349 4.26876 84.5658 4.57913 85.0351 5.05216C85.1665 5.18453 85.2853 5.32961 85.3894 5.48553C85.5138 5.43217 85.6428 5.38847 85.7755 5.35523C85.9779 5.30461 86.1884 5.27751 86.4033 5.27751C87.1203 5.27751 87.7695 5.57038 88.2394 6.0439C88.7093 6.51735 89 7.17151 89 7.89399C89 8.40325 88.8546 8.87956 88.6034 9.28296C88.3872 9.63009 88.0921 9.92259 87.7436 10.1347C87.8782 10.4509 87.9528 10.7993 87.9528 11.1651C87.9528 11.8876 87.6621 12.5418 87.1922 13.0152C86.7599 13.4509 86.1755 13.7338 85.5263 13.7761C85.5723 13.9711 85.5967 14.1744 85.5967 14.3835C85.5967 15.1059 85.306 15.7602 84.8361 16.2336C84.3663 16.707 83.717 17 83 17C82.283 17 81.6337 16.707 81.1639 16.2336C80.6939 15.7602 80.4033 15.1059 80.4033 14.3835C80.4033 14.2236 80.4184 14.0643 80.4471 13.9072C80.4552 13.8629 80.4644 13.8193 80.4745 13.7762C79.8249 13.734 79.2403 13.4511 78.8078 13.0152C78.3378 12.5418 78.0471 11.8876 78.0471 11.1651C78.0471 10.9439 78.0748 10.7281 78.1268 10.5214C78.1601 10.3889 78.2037 10.26 78.2567 10.1357C78.0758 10.0256 77.9092 9.89389 77.7606 9.74414C77.2907 9.27069 77 8.61649 77 7.89399C77 7.17151 77.2907 6.51735 77.7606 6.0439C78.2305 5.57038 78.8797 5.27751 79.5967 5.27751L79.5974 5.27754ZM80.1105 5.82492C79.9478 5.78415 79.7758 5.76241 79.5974 5.76241C79.0132 5.76241 78.4842 6.00101 78.1015 6.38669C77.7188 6.77229 77.482 7.30531 77.482 7.89399C77.482 8.48269 77.7188 9.01572 78.1015 9.40132C78.4721 9.77476 78.9797 10.0103 79.5419 10.0249L79.545 10.025C79.5623 10.025 79.5799 10.025 79.5974 10.025L79.6135 10.0249L79.6297 10.0247H79.6458H79.6619H79.6781H79.6942H79.7103H79.7262H79.7421H79.7579L79.7738 10.0218L79.7897 10.0188L79.8056 10.0159L79.8215 10.013L79.8371 10.0101L79.8527 10.0071L79.8684 10.0042L79.884 10.0013L79.8997 9.99836L79.9153 9.99545L79.9307 9.9925L79.9461 9.98958L79.9615 9.98666L79.9769 9.98372L79.9923 9.9808L80.0077 9.97788L80.0231 9.97493L80.0535 9.96812L80.0838 9.96032L80.0989 9.95642L80.1138 9.95252L80.1288 9.94862L80.1437 9.94472L80.1586 9.93984L80.1883 9.93204L80.2029 9.92716L80.2176 9.92227L80.2323 9.91739L80.2615 9.90763L80.2905 9.89769C80.3098 9.89086 80.3289 9.88383 80.348 9.87661L80.3622 9.87077L80.3764 9.86491L80.4046 9.8533C80.4186 9.84745 80.4326 9.84169 80.4465 9.83535L80.4742 9.82267L80.488 9.81585C80.5108 9.80522 80.5336 9.79399 80.556 9.78248C80.7847 9.66519 80.9893 9.5077 81.1601 9.31973C81.0927 9.26305 81.0277 9.20345 80.9657 9.14091C80.4903 8.66577 80.1805 8.02005 80.13 7.30222V7.29031V7.27412L80.1276 7.25012V7.2314V7.22455V7.19901C80.1276 7.17823 80.1252 7.15735 80.1252 7.13638L80.125 7.12477L80.1249 7.09366L80.1251 7.06002V7.04353V7.02656L80.1253 7.01564V7.0009L80.1255 6.99602V6.98539V6.97036V6.96158C80.1423 6.58524 80.2303 6.22745 80.3762 5.90178C80.2904 5.86764 80.2017 5.83897 80.1104 5.81614L80.1105 5.82492ZM80.604 7.06785L80.6039 7.07372L80.6037 7.10277C80.6037 7.12306 80.6037 7.14325 80.6037 7.16344L80.6039 7.17028C80.6212 7.81073 80.8859 8.38904 81.305 8.81128C81.7387 9.24829 82.338 9.51864 82.9999 9.51864C83.3618 9.51864 83.7049 9.43779 84.0124 9.29323H84.0148L84.0399 9.28115L84.0621 9.27022L84.0692 9.26629L84.0873 9.25754L84.1305 9.23471L84.1342 9.23179C84.1592 9.21823 84.184 9.20426 84.2086 9.18973L84.2109 9.18681C84.3883 9.08201 84.5511 8.955 84.6954 8.80958C85.1137 8.38811 85.3781 7.81152 85.3964 7.17273V7.15671C85.3964 7.13857 85.3964 7.12004 85.3964 7.10161L85.3962 7.07252L85.3961 7.06669C85.3867 6.41362 85.1204 5.82312 84.6943 5.39381C84.2607 4.95681 83.6613 4.68642 82.9994 4.68642C82.3375 4.68642 81.7381 4.95681 81.3044 5.39381C80.8783 5.82312 80.6119 6.4137 80.6027 7.06669L80.604 7.06785ZM80.7071 10.26L80.6563 10.2835L80.6392 10.2913L80.6221 10.2991L80.605 10.3069L80.5877 10.3147L80.5704 10.3225L80.5531 10.3303L80.5355 10.3382L80.5179 10.345L80.5004 10.3518L80.4828 10.3587L80.4652 10.3655L80.4474 10.3723L80.4296 10.3791L80.4118 10.386L80.3938 10.3918L80.376 10.3976L80.3579 10.4035L80.3399 10.4094L80.3218 10.4152L80.3036 10.4211L80.2853 10.4269L80.2302 10.4415L80.2117 10.4464L80.1932 10.4512L80.1746 10.4561L80.1561 10.461L80.1376 10.4649L80.1188 10.4688L80.1001 10.4727L80.0813 10.4766L80.0625 10.4805L80.0435 10.4844L80.0056 10.4912L79.9866 10.4941L79.9676 10.4971L79.9483 10.5L79.91 10.5049L79.8907 10.5078L79.8715 10.5107L79.8522 10.5137L79.8327 10.5166L79.8133 10.5195L79.7938 10.5224L79.7743 10.5254L79.7548 10.5283L79.7156 10.5312H79.6959H79.6762H79.6565H79.6367L79.617 10.5314L79.5973 10.5315L79.566 10.5313L79.558 10.5311L79.545 10.5309C79.2447 10.5251 78.9568 10.4676 78.6898 10.3672C78.6512 10.4612 78.6188 10.5589 78.5935 10.6597C78.5514 10.8271 78.529 11.0035 78.529 11.1861C78.529 11.7747 78.7658 12.3078 79.1486 12.6934C79.5313 13.079 80.0603 13.3177 80.6445 13.3177C81.2287 13.3177 81.7577 13.079 82.1404 12.6934C82.5231 12.3078 82.76 11.7747 82.76 11.1861C82.76 10.9442 82.7204 10.7123 82.6476 10.4971C82.5815 10.3018 82.4881 10.1193 82.3723 9.95445C82.0807 9.8889 81.806 9.77915 81.5552 9.63209C81.3368 9.88506 81.0717 10.095 80.7738 10.2479C80.7517 10.2592 80.7294 10.2701 80.707 10.2809L80.7071 10.26ZM86.404 5.76244C86.2256 5.76244 86.0537 5.78431 85.8909 5.82498C85.7997 5.84781 85.7109 5.87667 85.6251 5.91072C85.7711 6.2363 85.8591 6.59401 85.8759 6.97042V6.9792V6.99423V7.00486L85.8761 7.00974V7.02445L85.8763 7.03537V7.05237V7.06883L85.8765 7.1025L85.8763 7.12602L85.8761 7.14805V7.17663V7.20824V7.21604L85.8738 7.24578L85.8715 7.27114V7.28355V7.29594L85.8713 7.29886C85.8413 7.75353 85.7073 8.17962 85.493 8.55301L85.5172 8.55592H85.53H85.5454C85.5634 8.55885 85.5814 8.55886 85.5992 8.56081H85.6088C86.2246 8.6207 86.7778 8.89774 87.1917 9.31482C87.3111 9.43517 87.419 9.56725 87.5135 9.7091C87.7899 9.53694 88.0242 9.30253 88.1969 9.02523C88.4004 8.69844 88.5182 8.31058 88.5182 7.89381C88.5182 7.30514 88.2814 6.77212 87.8986 6.38651C87.5159 6.00083 86.987 5.76223 86.4028 5.76223L86.404 5.76244ZM85.3568 9.03356H85.3441L85.3415 9.03365H85.3366L85.334 9.03368H85.3292L85.3266 9.03377H85.3242L85.3216 9.03386H85.3193C85.2789 9.03386 85.2405 9.03676 85.2044 9.03871C85.1825 9.04164 85.1605 9.04263 85.1388 9.04458C85.1056 9.08184 85.0713 9.11803 85.0361 9.15359C84.6568 9.53582 84.172 9.81187 83.6295 9.93365C83.5137 10.0985 83.4202 10.2809 83.3541 10.4763C83.2812 10.6916 83.2416 10.9234 83.2416 11.1653C83.2416 11.301 83.2534 11.431 83.276 11.5544C83.2905 11.6331 83.3095 11.7113 83.3331 11.7883C83.9174 11.8634 84.441 12.1343 84.8371 12.5335C85.0548 12.7528 85.234 13.011 85.3637 13.2968C85.9453 13.2939 86.4718 13.0568 86.853 12.6726C87.2357 12.287 87.4726 11.7539 87.4726 11.1653C87.4726 10.5766 87.2357 10.0436 86.853 9.65796C86.5246 9.32699 86.0883 9.10415 85.6019 9.04773H85.5979C85.5731 9.04481 85.5483 9.04188 85.5233 9.03993H85.5163C85.4638 9.03603 85.4108 9.0341 85.3573 9.0341L85.3568 9.03356ZM85.5975 9.04714C85.5728 9.04421 85.548 9.04129 85.5229 9.03934L85.5975 9.04714ZM83.0007 10.0653C83.0103 10.0443 83.0204 10.0236 83.0307 10.0028L83.0007 10.0029L82.9709 10.0028C82.9813 10.0234 82.9911 10.0444 83.0007 10.0653ZM82.4807 13.0152C82.0846 13.4144 81.5609 13.6852 80.9767 13.7604C80.9533 13.8375 80.9341 13.9155 80.9196 13.9944C80.897 14.1176 80.8852 14.2477 80.8852 14.3835C80.8852 14.9721 81.122 15.5052 81.5048 15.8908C81.8875 16.2764 82.4165 16.5151 83.0007 16.5151C83.5849 16.5151 84.1139 16.2764 84.4966 15.8908C84.8794 15.5052 85.1162 14.9721 85.1162 14.3835C85.1162 13.7948 84.8794 13.2617 84.4966 12.8761C84.1154 12.4919 83.589 12.2537 83.0073 12.2519C82.8776 12.5377 82.6984 12.7959 82.4807 13.0152ZM80.6792 1.54643C80.4111 1.61871 80.1624 1.75102 79.9524 1.9319C80.0426 2.18962 80.188 2.42529 80.3781 2.6203C80.3825 2.6242 80.3867 2.62808 80.3909 2.63218C80.6126 2.85559 80.8938 3.0252 81.2178 3.1127C81.5425 3.2004 81.8703 3.19523 82.173 3.1127C82.4411 3.04042 82.6898 2.90814 82.8999 2.72726C82.8079 2.46482 82.658 2.22485 82.4615 2.02692C82.24 1.80393 81.9587 1.6345 81.634 1.54687C81.3093 1.45928 80.9815 1.46435 80.6787 1.54687L80.6792 1.54643Z"/>
</mask>
<path fill-rule="evenodd" clip-rule="evenodd" d="M79.5974 5.27754C79.8123 5.27754 80.0228 5.30454 80.2252 5.35526C80.3579 5.38853 80.4869 5.43223 80.6113 5.48556C80.7155 5.32968 80.8341 5.18457 80.9656 5.05219C81.4319 4.58226 82.0577 4.27287 82.7539 4.21331C82.751 3.91607 82.7701 3.63786 82.8075 3.37595C82.6464 3.46413 82.4751 3.53334 82.297 3.58138C81.9154 3.68439 81.5025 3.69086 81.0938 3.58138C80.6844 3.47087 80.3298 3.2572 80.0506 2.97592C80.046 2.97104 80.0415 2.96617 80.0374 2.96139C79.7549 2.67186 79.5507 2.31277 79.4464 1.92151C79.4221 1.82982 79.4533 1.73646 79.5195 1.67756C79.8072 1.39167 80.1651 1.18493 80.5553 1.07966C80.9369 0.976696 81.3498 0.970249 81.7586 1.07966C82.1671 1.18997 82.5214 1.40366 82.8009 1.68515C82.9374 1.82274 83.0561 1.9768 83.1546 2.14305C83.3062 1.79366 83.4927 1.47698 83.7001 1.18015C83.7763 1.07088 83.9262 1.04462 84.0347 1.12142C84.1431 1.19819 84.1692 1.34932 84.0929 1.45858C83.8239 1.8437 83.5942 2.26239 83.4408 2.74509C83.4292 2.78138 83.4181 2.81814 83.4074 2.85518C83.405 2.86395 83.4029 2.87314 83.3999 2.88173C83.2896 3.2747 83.2281 3.71282 83.2332 4.21209C83.9349 4.26876 84.5658 4.57913 85.0351 5.05216C85.1665 5.18453 85.2853 5.32961 85.3894 5.48553C85.5138 5.43217 85.6428 5.38847 85.7755 5.35523C85.9779 5.30461 86.1884 5.27751 86.4033 5.27751C87.1203 5.27751 87.7695 5.57038 88.2394 6.0439C88.7093 6.51735 89 7.17151 89 7.89399C89 8.40325 88.8546 8.87956 88.6034 9.28296C88.3872 9.63009 88.0921 9.92259 87.7436 10.1347C87.8782 10.4509 87.9528 10.7993 87.9528 11.1651C87.9528 11.8876 87.6621 12.5418 87.1922 13.0152C86.7599 13.4509 86.1755 13.7338 85.5263 13.7761C85.5723 13.9711 85.5967 14.1744 85.5967 14.3835C85.5967 15.1059 85.306 15.7602 84.8361 16.2336C84.3663 16.707 83.717 17 83 17C82.283 17 81.6337 16.707 81.1639 16.2336C80.6939 15.7602 80.4033 15.1059 80.4033 14.3835C80.4033 14.2236 80.4184 14.0643 80.4471 13.9072C80.4552 13.8629 80.4644 13.8193 80.4745 13.7762C79.8249 13.734 79.2403 13.4511 78.8078 13.0152C78.3378 12.5418 78.0471 11.8876 78.0471 11.1651C78.0471 10.9439 78.0748 10.7281 78.1268 10.5214C78.1601 10.3889 78.2037 10.26 78.2567 10.1357C78.0758 10.0256 77.9092 9.89389 77.7606 9.74414C77.2907 9.27069 77 8.61649 77 7.89399C77 7.17151 77.2907 6.51735 77.7606 6.0439C78.2305 5.57038 78.8797 5.27751 79.5967 5.27751L79.5974 5.27754ZM80.1105 5.82492C79.9478 5.78415 79.7758 5.76241 79.5974 5.76241C79.0132 5.76241 78.4842 6.00101 78.1015 6.38669C77.7188 6.77229 77.482 7.30531 77.482 7.89399C77.482 8.48269 77.7188 9.01572 78.1015 9.40132C78.4721 9.77476 78.9797 10.0103 79.5419 10.0249L79.545 10.025C79.5623 10.025 79.5799 10.025 79.5974 10.025L79.6135 10.0249L79.6297 10.0247H79.6458H79.6619H79.6781H79.6942H79.7103H79.7262H79.7421H79.7579L79.7738 10.0218L79.7897 10.0188L79.8056 10.0159L79.8215 10.013L79.8371 10.0101L79.8527 10.0071L79.8684 10.0042L79.884 10.0013L79.8997 9.99836L79.9153 9.99545L79.9307 9.9925L79.9461 9.98958L79.9615 9.98666L79.9769 9.98372L79.9923 9.9808L80.0077 9.97788L80.0231 9.97493L80.0535 9.96812L80.0838 9.96032L80.0989 9.95642L80.1138 9.95252L80.1288 9.94862L80.1437 9.94472L80.1586 9.93984L80.1883 9.93204L80.2029 9.92716L80.2176 9.92227L80.2323 9.91739L80.2615 9.90763L80.2905 9.89769C80.3098 9.89086 80.3289 9.88383 80.348 9.87661L80.3622 9.87077L80.3764 9.86491L80.4046 9.8533C80.4186 9.84745 80.4326 9.84169 80.4465 9.83535L80.4742 9.82267L80.488 9.81585C80.5108 9.80522 80.5336 9.79399 80.556 9.78248C80.7847 9.66519 80.9893 9.5077 81.1601 9.31973C81.0927 9.26305 81.0277 9.20345 80.9657 9.14091C80.4903 8.66577 80.1805 8.02005 80.13 7.30222V7.29031V7.27412L80.1276 7.25012V7.2314V7.22455V7.19901C80.1276 7.17823 80.1252 7.15735 80.1252 7.13638L80.125 7.12477L80.1249 7.09366L80.1251 7.06002V7.04353V7.02656L80.1253 7.01564V7.0009L80.1255 6.99602V6.98539V6.97036V6.96158C80.1423 6.58524 80.2303 6.22745 80.3762 5.90178C80.2904 5.86764 80.2017 5.83897 80.1104 5.81614L80.1105 5.82492ZM80.604 7.06785L80.6039 7.07372L80.6037 7.10277C80.6037 7.12306 80.6037 7.14325 80.6037 7.16344L80.6039 7.17028C80.6212 7.81073 80.8859 8.38904 81.305 8.81128C81.7387 9.24829 82.338 9.51864 82.9999 9.51864C83.3618 9.51864 83.7049 9.43779 84.0124 9.29323H84.0148L84.0399 9.28115L84.0621 9.27022L84.0692 9.26629L84.0873 9.25754L84.1305 9.23471L84.1342 9.23179C84.1592 9.21823 84.184 9.20426 84.2086 9.18973L84.2109 9.18681C84.3883 9.08201 84.5511 8.955 84.6954 8.80958C85.1137 8.38811 85.3781 7.81152 85.3964 7.17273V7.15671C85.3964 7.13857 85.3964 7.12004 85.3964 7.10161L85.3962 7.07252L85.3961 7.06669C85.3867 6.41362 85.1204 5.82312 84.6943 5.39381C84.2607 4.95681 83.6613 4.68642 82.9994 4.68642C82.3375 4.68642 81.7381 4.95681 81.3044 5.39381C80.8783 5.82312 80.6119 6.4137 80.6027 7.06669L80.604 7.06785ZM80.7071 10.26L80.6563 10.2835L80.6392 10.2913L80.6221 10.2991L80.605 10.3069L80.5877 10.3147L80.5704 10.3225L80.5531 10.3303L80.5355 10.3382L80.5179 10.345L80.5004 10.3518L80.4828 10.3587L80.4652 10.3655L80.4474 10.3723L80.4296 10.3791L80.4118 10.386L80.3938 10.3918L80.376 10.3976L80.3579 10.4035L80.3399 10.4094L80.3218 10.4152L80.3036 10.4211L80.2853 10.4269L80.2302 10.4415L80.2117 10.4464L80.1932 10.4512L80.1746 10.4561L80.1561 10.461L80.1376 10.4649L80.1188 10.4688L80.1001 10.4727L80.0813 10.4766L80.0625 10.4805L80.0435 10.4844L80.0056 10.4912L79.9866 10.4941L79.9676 10.4971L79.9483 10.5L79.91 10.5049L79.8907 10.5078L79.8715 10.5107L79.8522 10.5137L79.8327 10.5166L79.8133 10.5195L79.7938 10.5224L79.7743 10.5254L79.7548 10.5283L79.7156 10.5312H79.6959H79.6762H79.6565H79.6367L79.617 10.5314L79.5973 10.5315L79.566 10.5313L79.558 10.5311L79.545 10.5309C79.2447 10.5251 78.9568 10.4676 78.6898 10.3672C78.6512 10.4612 78.6188 10.5589 78.5935 10.6597C78.5514 10.8271 78.529 11.0035 78.529 11.1861C78.529 11.7747 78.7658 12.3078 79.1486 12.6934C79.5313 13.079 80.0603 13.3177 80.6445 13.3177C81.2287 13.3177 81.7577 13.079 82.1404 12.6934C82.5231 12.3078 82.76 11.7747 82.76 11.1861C82.76 10.9442 82.7204 10.7123 82.6476 10.4971C82.5815 10.3018 82.4881 10.1193 82.3723 9.95445C82.0807 9.8889 81.806 9.77915 81.5552 9.63209C81.3368 9.88506 81.0717 10.095 80.7738 10.2479C80.7517 10.2592 80.7294 10.2701 80.707 10.2809L80.7071 10.26ZM86.404 5.76244C86.2256 5.76244 86.0537 5.78431 85.8909 5.82498C85.7997 5.84781 85.7109 5.87667 85.6251 5.91072C85.7711 6.2363 85.8591 6.59401 85.8759 6.97042V6.9792V6.99423V7.00486L85.8761 7.00974V7.02445L85.8763 7.03537V7.05237V7.06883L85.8765 7.1025L85.8763 7.12602L85.8761 7.14805V7.17663V7.20824V7.21604L85.8738 7.24578L85.8715 7.27114V7.28355V7.29594L85.8713 7.29886C85.8413 7.75353 85.7073 8.17962 85.493 8.55301L85.5172 8.55592H85.53H85.5454C85.5634 8.55885 85.5814 8.55886 85.5992 8.56081H85.6088C86.2246 8.6207 86.7778 8.89774 87.1917 9.31482C87.3111 9.43517 87.419 9.56725 87.5135 9.7091C87.7899 9.53694 88.0242 9.30253 88.1969 9.02523C88.4004 8.69844 88.5182 8.31058 88.5182 7.89381C88.5182 7.30514 88.2814 6.77212 87.8986 6.38651C87.5159 6.00083 86.987 5.76223 86.4028 5.76223L86.404 5.76244ZM85.3568 9.03356H85.3441L85.3415 9.03365H85.3366L85.334 9.03368H85.3292L85.3266 9.03377H85.3242L85.3216 9.03386H85.3193C85.2789 9.03386 85.2405 9.03676 85.2044 9.03871C85.1825 9.04164 85.1605 9.04263 85.1388 9.04458C85.1056 9.08184 85.0713 9.11803 85.0361 9.15359C84.6568 9.53582 84.172 9.81187 83.6295 9.93365C83.5137 10.0985 83.4202 10.2809 83.3541 10.4763C83.2812 10.6916 83.2416 10.9234 83.2416 11.1653C83.2416 11.301 83.2534 11.431 83.276 11.5544C83.2905 11.6331 83.3095 11.7113 83.3331 11.7883C83.9174 11.8634 84.441 12.1343 84.8371 12.5335C85.0548 12.7528 85.234 13.011 85.3637 13.2968C85.9453 13.2939 86.4718 13.0568 86.853 12.6726C87.2357 12.287 87.4726 11.7539 87.4726 11.1653C87.4726 10.5766 87.2357 10.0436 86.853 9.65796C86.5246 9.32699 86.0883 9.10415 85.6019 9.04773H85.5979C85.5731 9.04481 85.5483 9.04188 85.5233 9.03993H85.5163C85.4638 9.03603 85.4108 9.0341 85.3573 9.0341L85.3568 9.03356ZM85.5975 9.04714C85.5728 9.04421 85.548 9.04129 85.5229 9.03934L85.5975 9.04714ZM83.0007 10.0653C83.0103 10.0443 83.0204 10.0236 83.0307 10.0028L83.0007 10.0029L82.9709 10.0028C82.9813 10.0234 82.9911 10.0444 83.0007 10.0653ZM82.4807 13.0152C82.0846 13.4144 81.5609 13.6852 80.9767 13.7604C80.9533 13.8375 80.9341 13.9155 80.9196 13.9944C80.897 14.1176 80.8852 14.2477 80.8852 14.3835C80.8852 14.9721 81.122 15.5052 81.5048 15.8908C81.8875 16.2764 82.4165 16.5151 83.0007 16.5151C83.5849 16.5151 84.1139 16.2764 84.4966 15.8908C84.8794 15.5052 85.1162 14.9721 85.1162 14.3835C85.1162 13.7948 84.8794 13.2617 84.4966 12.8761C84.1154 12.4919 83.589 12.2537 83.0073 12.2519C82.8776 12.5377 82.6984 12.7959 82.4807 13.0152ZM80.6792 1.54643C80.4111 1.61871 80.1624 1.75102 79.9524 1.9319C80.0426 2.18962 80.188 2.42529 80.3781 2.6203C80.3825 2.6242 80.3867 2.62808 80.3909 2.63218C80.6126 2.85559 80.8938 3.0252 81.2178 3.1127C81.5425 3.2004 81.8703 3.19523 82.173 3.1127C82.4411 3.04042 82.6898 2.90814 82.8999 2.72726C82.8079 2.46482 82.658 2.22485 82.4615 2.02692C82.24 1.80393 81.9587 1.6345 81.634 1.54687C81.3093 1.45928 80.9815 1.46435 80.6787 1.54687L80.6792 1.54643Z" fill="#C8693A"/>
<path fill-rule="evenodd" clip-rule="evenodd" d="M79.5974 5.27754C79.8123 5.27754 80.0228 5.30454 80.2252 5.35526C80.3579 5.38853 80.4869 5.43223 80.6113 5.48556C80.7155 5.32968 80.8341 5.18457 80.9656 5.05219C81.4319 4.58226 82.0577 4.27287 82.7539 4.21331C82.751 3.91607 82.7701 3.63786 82.8075 3.37595C82.6464 3.46413 82.4751 3.53334 82.297 3.58138C81.9154 3.68439 81.5025 3.69086 81.0938 3.58138C80.6844 3.47087 80.3298 3.2572 80.0506 2.97592C80.046 2.97104 80.0415 2.96617 80.0374 2.96139C79.7549 2.67186 79.5507 2.31277 79.4464 1.92151C79.4221 1.82982 79.4533 1.73646 79.5195 1.67756C79.8072 1.39167 80.1651 1.18493 80.5553 1.07966C80.9369 0.976696 81.3498 0.970249 81.7586 1.07966C82.1671 1.18997 82.5214 1.40366 82.8009 1.68515C82.9374 1.82274 83.0561 1.9768 83.1546 2.14305C83.3062 1.79366 83.4927 1.47698 83.7001 1.18015C83.7763 1.07088 83.9262 1.04462 84.0347 1.12142C84.1431 1.19819 84.1692 1.34932 84.0929 1.45858C83.8239 1.8437 83.5942 2.26239 83.4408 2.74509C83.4292 2.78138 83.4181 2.81814 83.4074 2.85518C83.405 2.86395 83.4029 2.87314 83.3999 2.88173C83.2896 3.2747 83.2281 3.71282 83.2332 4.21209C83.9349 4.26876 84.5658 4.57913 85.0351 5.05216C85.1665 5.18453 85.2853 5.32961 85.3894 5.48553C85.5138 5.43217 85.6428 5.38847 85.7755 5.35523C85.9779 5.30461 86.1884 5.27751 86.4033 5.27751C87.1203 5.27751 87.7695 5.57038 88.2394 6.0439C88.7093 6.51735 89 7.17151 89 7.89399C89 8.40325 88.8546 8.87956 88.6034 9.28296C88.3872 9.63009 88.0921 9.92259 87.7436 10.1347C87.8782 10.4509 87.9528 10.7993 87.9528 11.1651C87.9528 11.8876 87.6621 12.5418 87.1922 13.0152C86.7599 13.4509 86.1755 13.7338 85.5263 13.7761C85.5723 13.9711 85.5967 14.1744 85.5967 14.3835C85.5967 15.1059 85.306 15.7602 84.8361 16.2336C84.3663 16.707 83.717 17 83 17C82.283 17 81.6337 16.707 81.1639 16.2336C80.6939 15.7602 80.4033 15.1059 80.4033 14.3835C80.4033 14.2236 80.4184 14.0643 80.4471 13.9072C80.4552 13.8629 80.4644 13.8193 80.4745 13.7762C79.8249 13.734 79.2403 13.4511 78.8078 13.0152C78.3378 12.5418 78.0471 11.8876 78.0471 11.1651C78.0471 10.9439 78.0748 10.7281 78.1268 10.5214C78.1601 10.3889 78.2037 10.26 78.2567 10.1357C78.0758 10.0256 77.9092 9.89389 77.7606 9.74414C77.2907 9.27069 77 8.61649 77 7.89399C77 7.17151 77.2907 6.51735 77.7606 6.0439C78.2305 5.57038 78.8797 5.27751 79.5967 5.27751L79.5974 5.27754ZM80.1105 5.82492C79.9478 5.78415 79.7758 5.76241 79.5974 5.76241C79.0132 5.76241 78.4842 6.00101 78.1015 6.38669C77.7188 6.77229 77.482 7.30531 77.482 7.89399C77.482 8.48269 77.7188 9.01572 78.1015 9.40132C78.4721 9.77476 78.9797 10.0103 79.5419 10.0249L79.545 10.025C79.5623 10.025 79.5799 10.025 79.5974 10.025L79.6135 10.0249L79.6297 10.0247H79.6458H79.6619H79.6781H79.6942H79.7103H79.7262H79.7421H79.7579L79.7738 10.0218L79.7897 10.0188L79.8056 10.0159L79.8215 10.013L79.8371 10.0101L79.8527 10.0071L79.8684 10.0042L79.884 10.0013L79.8997 9.99836L79.9153 9.99545L79.9307 9.9925L79.9461 9.98958L79.9615 9.98666L79.9769 9.98372L79.9923 9.9808L80.0077 9.97788L80.0231 9.97493L80.0535 9.96812L80.0838 9.96032L80.0989 9.95642L80.1138 9.95252L80.1288 9.94862L80.1437 9.94472L80.1586 9.93984L80.1883 9.93204L80.2029 9.92716L80.2176 9.92227L80.2323 9.91739L80.2615 9.90763L80.2905 9.89769C80.3098 9.89086 80.3289 9.88383 80.348 9.87661L80.3622 9.87077L80.3764 9.86491L80.4046 9.8533C80.4186 9.84745 80.4326 9.84169 80.4465 9.83535L80.4742 9.82267L80.488 9.81585C80.5108 9.80522 80.5336 9.79399 80.556 9.78248C80.7847 9.66519 80.9893 9.5077 81.1601 9.31973C81.0927 9.26305 81.0277 9.20345 80.9657 9.14091C80.4903 8.66577 80.1805 8.02005 80.13 7.30222V7.29031V7.27412L80.1276 7.25012V7.2314V7.22455V7.19901C80.1276 7.17823 80.1252 7.15735 80.1252 7.13638L80.125 7.12477L80.1249 7.09366L80.1251 7.06002V7.04353V7.02656L80.1253 7.01564V7.0009L80.1255 6.99602V6.98539V6.97036V6.96158C80.1423 6.58524 80.2303 6.22745 80.3762 5.90178C80.2904 5.86764 80.2017 5.83897 80.1104 5.81614L80.1105 5.82492ZM80.604 7.06785L80.6039 7.07372L80.6037 7.10277C80.6037 7.12306 80.6037 7.14325 80.6037 7.16344L80.6039 7.17028C80.6212 7.81073 80.8859 8.38904 81.305 8.81128C81.7387 9.24829 82.338 9.51864 82.9999 9.51864C83.3618 9.51864 83.7049 9.43779 84.0124 9.29323H84.0148L84.0399 9.28115L84.0621 9.27022L84.0692 9.26629L84.0873 9.25754L84.1305 9.23471L84.1342 9.23179C84.1592 9.21823 84.184 9.20426 84.2086 9.18973L84.2109 9.18681C84.3883 9.08201 84.5511 8.955 84.6954 8.80958C85.1137 8.38811 85.3781 7.81152 85.3964 7.17273V7.15671C85.3964 7.13857 85.3964 7.12004 85.3964 7.10161L85.3962 7.07252L85.3961 7.06669C85.3867 6.41362 85.1204 5.82312 84.6943 5.39381C84.2607 4.95681 83.6613 4.68642 82.9994 4.68642C82.3375 4.68642 81.7381 4.95681 81.3044 5.39381C80.8783 5.82312 80.6119 6.4137 80.6027 7.06669L80.604 7.06785ZM80.7071 10.26L80.6563 10.2835L80.6392 10.2913L80.6221 10.2991L80.605 10.3069L80.5877 10.3147L80.5704 10.3225L80.5531 10.3303L80.5355 10.3382L80.5179 10.345L80.5004 10.3518L80.4828 10.3587L80.4652 10.3655L80.4474 10.3723L80.4296 10.3791L80.4118 10.386L80.3938 10.3918L80.376 10.3976L80.3579 10.4035L80.3399 10.4094L80.3218 10.4152L80.3036 10.4211L80.2853 10.4269L80.2302 10.4415L80.2117 10.4464L80.1932 10.4512L80.1746 10.4561L80.1561 10.461L80.1376 10.4649L80.1188 10.4688L80.1001 10.4727L80.0813 10.4766L80.0625 10.4805L80.0435 10.4844L80.0056 10.4912L79.9866 10.4941L79.9676 10.4971L79.9483 10.5L79.91 10.5049L79.8907 10.5078L79.8715 10.5107L79.8522 10.5137L79.8327 10.5166L79.8133 10.5195L79.7938 10.5224L79.7743 10.5254L79.7548 10.5283L79.7156 10.5312H79.6959H79.6762H79.6565H79.6367L79.617 10.5314L79.5973 10.5315L79.566 10.5313L79.558 10.5311L79.545 10.5309C79.2447 10.5251 78.9568 10.4676 78.6898 10.3672C78.6512 10.4612 78.6188 10.5589 78.5935 10.6597C78.5514 10.8271 78.529 11.0035 78.529 11.1861C78.529 11.7747 78.7658 12.3078 79.1486 12.6934C79.5313 13.079 80.0603 13.3177 80.6445 13.3177C81.2287 13.3177 81.7577 13.079 82.1404 12.6934C82.5231 12.3078 82.76 11.7747 82.76 11.1861C82.76 10.9442 82.7204 10.7123 82.6476 10.4971C82.5815 10.3018 82.4881 10.1193 82.3723 9.95445C82.0807 9.8889 81.806 9.77915 81.5552 9.63209C81.3368 9.88506 81.0717 10.095 80.7738 10.2479C80.7517 10.2592 80.7294 10.2701 80.707 10.2809L80.7071 10.26ZM86.404 5.76244C86.2256 5.76244 86.0537 5.78431 85.8909 5.82498C85.7997 5.84781 85.7109 5.87667 85.6251 5.91072C85.7711 6.2363 85.8591 6.59401 85.8759 6.97042V6.9792V6.99423V7.00486L85.8761 7.00974V7.02445L85.8763 7.03537V7.05237V7.06883L85.8765 7.1025L85.8763 7.12602L85.8761 7.14805V7.17663V7.20824V7.21604L85.8738 7.24578L85.8715 7.27114V7.28355V7.29594L85.8713 7.29886C85.8413 7.75353 85.7073 8.17962 85.493 8.55301L85.5172 8.55592H85.53H85.5454C85.5634 8.55885 85.5814 8.55886 85.5992 8.56081H85.6088C86.2246 8.6207 86.7778 8.89774 87.1917 9.31482C87.3111 9.43517 87.419 9.56725 87.5135 9.7091C87.7899 9.53694 88.0242 9.30253 88.1969 9.02523C88.4004 8.69844 88.5182 8.31058 88.5182 7.89381C88.5182 7.30514 88.2814 6.77212 87.8986 6.38651C87.5159 6.00083 86.987 5.76223 86.4028 5.76223L86.404 5.76244ZM85.3568 9.03356H85.3441L85.3415 9.03365H85.3366L85.334 9.03368H85.3292L85.3266 9.03377H85.3242L85.3216 9.03386H85.3193C85.2789 9.03386 85.2405 9.03676 85.2044 9.03871C85.1825 9.04164 85.1605 9.04263 85.1388 9.04458C85.1056 9.08184 85.0713 9.11803 85.0361 9.15359C84.6568 9.53582 84.172 9.81187 83.6295 9.93365C83.5137 10.0985 83.4202 10.2809 83.3541 10.4763C83.2812 10.6916 83.2416 10.9234 83.2416 11.1653C83.2416 11.301 83.2534 11.431 83.276 11.5544C83.2905 11.6331 83.3095 11.7113 83.3331 11.7883C83.9174 11.8634 84.441 12.1343 84.8371 12.5335C85.0548 12.7528 85.234 13.011 85.3637 13.2968C85.9453 13.2939 86.4718 13.0568 86.853 12.6726C87.2357 12.287 87.4726 11.7539 87.4726 11.1653C87.4726 10.5766 87.2357 10.0436 86.853 9.65796C86.5246 9.32699 86.0883 9.10415 85.6019 9.04773H85.5979C85.5731 9.04481 85.5483 9.04188 85.5233 9.03993H85.5163C85.4638 9.03603 85.4108 9.0341 85.3573 9.0341L85.3568 9.03356ZM85.5975 9.04714C85.5728 9.04421 85.548 9.04129 85.5229 9.03934L85.5975 9.04714ZM83.0007 10.0653C83.0103 10.0443 83.0204 10.0236 83.0307 10.0028L83.0007 10.0029L82.9709 10.0028C82.9813 10.0234 82.9911 10.0444 83.0007 10.0653ZM82.4807 13.0152C82.0846 13.4144 81.5609 13.6852 80.9767 13.7604C80.9533 13.8375 80.9341 13.9155 80.9196 13.9944C80.897 14.1176 80.8852 14.2477 80.8852 14.3835C80.8852 14.9721 81.122 15.5052 81.5048 15.8908C81.8875 16.2764 82.4165 16.5151 83.0007 16.5151C83.5849 16.5151 84.1139 16.2764 84.4966 15.8908C84.8794 15.5052 85.1162 14.9721 85.1162 14.3835C85.1162 13.7948 84.8794 13.2617 84.4966 12.8761C84.1154 12.4919 83.589 12.2537 83.0073 12.2519C82.8776 12.5377 82.6984 12.7959 82.4807 13.0152ZM80.6792 1.54643C80.4111 1.61871 80.1624 1.75102 79.9524 1.9319C80.0426 2.18962 80.188 2.42529 80.3781 2.6203C80.3825 2.6242 80.3867 2.62808 80.3909 2.63218C80.6126 2.85559 80.8938 3.0252 81.2178 3.1127C81.5425 3.2004 81.8703 3.19523 82.173 3.1127C82.4411 3.04042 82.6898 2.90814 82.8999 2.72726C82.8079 2.46482 82.658 2.22485 82.4615 2.02692C82.24 1.80393 81.9587 1.6345 81.634 1.54687C81.3093 1.45928 80.9815 1.46435 80.6787 1.54687L80.6792 1.54643Z" stroke="#C8693A" stroke-width="0.6" mask="url(#path-3-outside-1)"/>
</svg>
