<svg width="2068" height="517" viewBox="0 0 2068 517" fill="none" xmlns="http://www.w3.org/2000/svg">
<path d="M189.844 285.974C170.144 285.974 154.118 302 154.118 321.7C154.118 341.396 170.144 357.425 189.844 357.425C209.544 357.425 225.569 341.396 225.569 321.7C225.569 302 209.544 285.974 189.844 285.974V285.974ZM189.844 338.441C180.611 338.441 173.103 330.929 173.103 321.696C173.103 312.467 180.611 304.955 189.844 304.955C199.073 304.955 206.585 312.467 206.585 321.696C206.585 330.929 199.073 338.441 189.844 338.441Z" fill="white" fill-opacity="0.9"/>
<path d="M482.4 127.084C475.774 121.837 469.34 118.519 463.475 116.468C472.166 104.225 476.927 84.9291 468.947 56.4971C468.054 53.3083 465.562 50.8166 462.373 49.9193C433.934 41.9399 414.638 46.7008 402.398 55.3958C400.352 49.5225 397.029 43.0968 391.786 36.4671C388.898 32.8185 383.788 31.8025 379.721 34.0718C358.604 45.8443 351.233 62.0737 349.891 75.3405C348.096 74.9957 346.142 74.6879 344.003 74.4284C339.375 73.8648 335.015 76.7458 333.728 81.2287C331.689 88.3404 330.439 94.9478 329.946 101.062C314.117 115.686 293.687 123.714 272.01 123.714H269.893C264.65 123.714 260.401 127.963 260.401 133.206C260.401 138.445 264.65 142.698 269.893 142.698H272.01C282.786 142.698 293.309 141.07 303.305 137.944L304.929 139.569C312.831 147.47 317.436 157.789 318.066 168.861C308.9 171.004 300.876 176.147 295.1 183.207C288.181 174.745 278.032 169.028 266.549 167.941C259.037 146.176 243.56 128.256 223.185 117.659V9.49219C223.185 4.24924 218.932 0 213.693 0H165.995C160.755 0 156.502 4.24924 156.502 9.49219V117.662C126.969 133.032 108.211 163.625 108.211 197.271V201.353H9.49219C4.24924 201.353 0 205.606 0 210.845V348.111C0 379.973 23.5414 406.432 54.1388 411.027L54.187 467.016H39.3333C34.094 467.016 29.8411 471.265 29.8411 476.508C29.8411 481.747 34.094 486 39.3333 486H88.04C93.283 486 97.5322 481.747 97.5322 476.508C97.5322 471.265 93.283 467.016 88.04 467.016H73.1714L73.1232 411.023C86.6867 408.984 98.8597 402.643 108.211 393.444V476.508C108.211 481.747 112.46 486 117.703 486H261.984C267.224 486 271.477 481.747 271.477 476.508V300.899C276.441 304.288 282.166 306.635 288.336 307.636C286.579 312.263 285.607 317.276 285.607 322.512C285.607 345.69 304.462 364.541 327.64 364.541C350.814 364.541 369.665 345.69 369.665 322.512C369.665 317.276 368.697 312.263 366.94 307.636C386.907 304.391 402.205 287.031 402.205 266.159C402.205 260.913 401.23 255.892 399.465 251.257C419.44 248.017 434.742 230.653 434.742 209.777C434.742 201.568 432.365 193.908 428.279 187.426C431.301 186.818 434.427 186.062 437.638 185.138C442.121 183.852 445.006 179.499 444.438 174.868C444.179 172.728 443.871 170.77 443.526 168.979C456.793 167.634 473.022 160.262 484.795 139.15C487.064 135.082 486.048 129.973 482.4 127.084V127.084ZM332.367 123.521C333.917 127.918 336.116 131.875 339.019 135.342C344.314 141.663 351.033 145.319 357.462 147.429C350.925 152.283 343.643 156.046 335.831 158.571C333.695 148.071 328.949 138.308 321.93 130.047C325.523 128.089 329.008 125.912 332.367 123.521ZM360.177 183.207C357.129 179.48 353.454 176.288 349.316 173.785C357.184 170.47 364.537 166.106 371.219 160.796C371.823 162.717 372.554 164.667 373.466 166.61C374.229 168.234 375.097 169.754 376.02 171.215C369.825 173.907 364.4 178.045 360.177 183.207V183.207ZM127.251 252.492H252.492V390.904H127.195L127.251 252.492ZM327.64 186.733C340.347 186.733 350.681 197.07 350.681 209.777C350.681 222.484 340.343 232.822 327.64 232.822C314.933 232.822 304.592 222.484 304.592 209.777C304.592 197.07 314.933 186.733 327.64 186.733ZM285.607 209.777C285.607 222.484 275.27 232.822 262.567 232.822C249.86 232.822 239.518 222.484 239.518 209.777C239.518 197.07 249.86 186.733 262.567 186.733C275.27 186.733 285.607 197.07 285.607 209.777ZM204.201 18.9844V80.2794H175.487V18.9844H204.201ZM169.777 132.353C173.244 130.848 175.487 127.429 175.487 123.647V99.2638H204.201V123.647C204.201 127.425 206.444 130.848 209.911 132.353C227.041 139.795 240.349 153.536 247.279 170.637C231.643 176.766 220.534 191.994 220.534 209.777C220.534 218.576 223.259 226.748 227.898 233.508H127.251V210.845C127.251 210.508 127.229 210.174 127.195 209.844V197.271C127.195 169.068 143.91 143.588 169.777 132.353V132.353ZM108.211 220.337L108.267 277.628H18.9844V220.337H108.211ZM63.6236 392.75C39.0107 392.75 18.9844 372.724 18.9844 348.111V296.616H108.267V340.48C108.229 340.81 108.211 341.144 108.211 341.481V350.232C107.102 373.862 87.5284 392.75 63.6236 392.75ZM127.195 467.016V409.888H252.492V433.793H202.184C196.941 433.793 192.691 438.042 192.691 443.285C192.691 448.524 196.941 452.777 202.184 452.777H252.492V467.016H127.195ZM272.055 266.159C272.055 253.453 282.393 243.115 295.1 243.115C307.806 243.115 318.144 253.453 318.144 266.159C318.144 278.866 307.806 289.204 295.1 289.204C282.393 289.204 272.055 278.866 272.055 266.159V266.159ZM327.64 345.556C314.933 345.556 304.592 335.219 304.592 322.512C304.592 309.809 314.933 299.467 327.64 299.467C340.343 299.467 350.681 309.809 350.681 322.512C350.681 335.219 340.347 345.556 327.64 345.556ZM360.173 289.204C347.466 289.204 337.132 278.866 337.132 266.159C337.132 253.453 347.47 243.115 360.173 243.115C372.88 243.115 383.221 253.453 383.221 266.159C383.221 278.866 372.884 289.204 360.173 289.204V289.204ZM392.713 232.822C380.006 232.822 369.669 222.484 369.669 209.777C369.669 197.074 380.006 186.733 392.713 186.733C405.42 186.733 415.758 197.07 415.758 209.777C415.758 222.484 405.42 232.822 392.713 232.822V232.822ZM432.428 149.313C428.09 147.707 423.326 149.506 421.016 153.521C418.898 157.196 419.584 161.812 422.458 164.827C422.684 165.205 423.333 166.421 424.038 168.928C423.055 169.117 422.087 169.287 421.145 169.436C414.271 170.511 408.435 170.429 403.689 169.209C403.481 169.154 403.273 169.094 403.062 169.039C401.594 168.624 400.222 168.101 398.972 167.456C395.298 165.55 392.572 162.632 390.648 158.534C386.944 150.655 387.741 141.589 387.741 141.549C388.038 138.705 387.059 135.875 385.038 133.855C383.247 132.064 380.844 131.07 378.345 131.07C378.023 131.07 377.696 131.089 377.37 131.122C377.211 131.141 361.322 132.501 353.521 123.087C347.766 116.146 347.981 104.989 349.95 94.8329C352.46 95.5411 353.673 96.19 354.044 96.4124C357.025 99.2416 361.549 99.8571 365.216 97.8066C369.231 95.5559 371.056 90.7468 369.539 86.4012C369.524 86.353 367.967 81.262 369.176 74.6954C370.522 67.3575 374.719 60.9094 381.686 55.4477C388.468 67.9285 386.009 77.4244 385.88 77.8953C384.511 82.9046 387.426 88.0882 392.42 89.5195C397.415 90.9544 402.632 88.1031 404.13 83.1271C404.942 80.4277 412.947 57.9431 452.006 66.8643C460.92 105.912 438.439 113.928 435.74 114.741C430.764 116.239 427.916 121.456 429.351 126.45C430.786 131.445 435.969 134.355 440.979 132.987C441.446 132.861 450.935 130.399 463.415 137.177C450.1 154.103 434.609 149.999 432.428 149.313Z" fill="white" fill-opacity="0.9"/>
<path d="M167.062 433.793C164.567 433.793 162.116 434.805 160.351 436.574C158.586 438.339 157.57 440.786 157.57 443.285C157.57 445.781 158.586 448.228 160.351 449.993C162.116 451.761 164.567 452.777 167.062 452.777C169.558 452.777 172.009 451.761 173.774 449.993C175.539 448.228 176.555 445.781 176.555 443.285C176.555 440.786 175.539 438.339 173.774 436.574C172.009 434.809 169.558 433.793 167.062 433.793Z" fill="white" fill-opacity="0.9"/>
<path d="M672.3 304C650.5 304 631.4 298.7 615 288.1C598.6 277.5 585.9 262.7 576.9 243.7C568.1 224.7 563.7 202.8 563.7 178C563.7 153.2 568.2 131.3 577.2 112.3C586.4 93.1 599.3 78.3 615.9 67.9C632.7 57.3 652 52 673.8 52C682.4 52 691.1 53.5 699.9 56.5C708.9 59.5 717 63.7 724.2 69.1L744.3 52H750.6V126.4H744.3L725.7 79.9C718.7 73.5 710.5 68.4 701.1 64.6C691.9 60.8 682.8 58.9 673.8 58.9C659.8 58.9 647.4 62.5 636.6 69.7C626 76.9 617.7 87.4 611.7 101.2C605.7 115 602.7 131.4 602.7 150.4V205.3C602.7 224.3 605.6 240.7 611.4 254.5C617.2 268.3 625.3 278.9 635.7 286.3C646.1 293.5 658.3 297.1 672.3 297.1C682.5 297.1 692.7 294.9 702.9 290.5C713.1 285.9 721.6 279.8 728.4 272.2L745.8 223.9H752.1V301H745.8L724.2 285.7C717 291.5 708.8 296 699.6 299.2C690.4 302.4 681.3 304 672.3 304ZM828.635 301C815.835 301 805.335 297.7 797.135 291.1C788.935 284.3 784.835 274.3 784.835 261.1C784.835 242.3 792.735 229 808.535 221.2C824.335 213.2 842.635 209.2 863.435 209.2H883.535V186.1C883.535 175.7 882.335 167.7 879.935 162.1C877.735 156.3 874.235 152.3 869.435 150.1C864.635 147.7 858.135 146.5 849.935 146.5C840.535 146.5 833.535 148.4 828.935 152.2C824.335 155.8 822.035 160.7 822.035 166.9C822.035 172.7 824.835 176.5 830.435 178.3C830.435 183.3 828.535 187.7 824.735 191.5C820.935 195.3 816.435 197.2 811.235 197.2C805.635 197.2 801.135 195.7 797.735 192.7C794.335 189.5 792.635 184.7 792.635 178.3C792.635 166.7 798.435 157.4 810.035 150.4C821.635 143.4 836.135 139.9 853.535 139.9C893.535 139.9 913.535 157.3 913.535 192.1V277.9C913.535 282.3 914.435 285.7 916.235 288.1C918.235 290.3 921.035 291.4 924.635 291.4C928.035 291.4 930.735 290.3 932.735 288.1C934.735 285.7 935.735 282.5 935.735 278.5H942.035C942.035 285.5 939.735 291 935.135 295C930.735 299 924.535 301 916.535 301C907.335 301 899.535 298.4 893.135 293.2C886.935 287.8 883.735 279.5 883.535 268.3C878.735 278.5 871.335 286.5 861.335 292.3C851.535 298.1 840.635 301 828.635 301ZM845.135 287.8C850.535 287.8 856.035 286.2 861.635 283C867.435 279.8 872.335 275.2 876.335 269.2C880.335 263 882.735 255.6 883.535 247V215.8H863.435C847.035 215.8 834.735 219.5 826.535 226.9C818.535 234.1 814.535 244.3 814.535 257.5C814.535 268.5 817.135 276.3 822.335 280.9C827.535 285.5 835.135 287.8 845.135 287.8ZM947.25 298V292L969.75 289V67L947.25 64V58H999.75V289L1020.75 292V298H947.25ZM1067.29 107.8C1061.69 107.8 1056.89 105.9 1052.89 102.1C1048.89 98.1 1046.89 93.3 1046.89 87.7C1046.89 82.1 1048.79 77.4 1052.59 73.6C1056.59 69.8 1061.49 67.9 1067.29 67.9C1072.69 67.9 1077.29 69.8 1081.09 73.6C1084.89 77.4 1086.79 82.1 1086.79 87.7C1086.79 93.3 1084.89 98.1 1081.09 102.1C1077.29 105.9 1072.69 107.8 1067.29 107.8ZM1035.49 298V292L1056.49 289V151.9L1035.49 148.9V142.9H1086.49V289L1107.49 292V298H1035.49ZM1212.21 304L1127.61 68.8L1107.51 64.6V58H1190.91V64.6L1163.61 68.8L1228.11 246.4L1271.91 131.8L1249.41 68.8L1221.81 64.6V58H1310.91V64.6L1285.11 68.2L1350.21 246.1L1414.71 78.1L1380.81 64.6V58H1445.31V64.6L1422.51 77.8L1336.71 304H1334.31L1275.81 142.3L1214.61 304H1212.21ZM1478.32 107.8C1472.72 107.8 1467.92 105.9 1463.92 102.1C1459.92 98.1 1457.92 93.3 1457.92 87.7C1457.92 82.1 1459.82 77.4 1463.62 73.6C1467.62 69.8 1472.52 67.9 1478.32 67.9C1483.72 67.9 1488.32 69.8 1492.12 73.6C1495.92 77.4 1497.82 82.1 1497.82 87.7C1497.82 93.3 1495.92 98.1 1492.12 102.1C1488.32 105.9 1483.72 107.8 1478.32 107.8ZM1446.52 298V292L1467.52 289V151.9L1446.52 148.9V142.9H1497.52V289L1518.52 292V298H1446.52ZM1532.94 292L1553.94 289V151.6L1532.94 148.6V142.6H1583.94V175C1591.34 164.2 1600.04 155.7 1610.04 149.5C1620.04 143.1 1630.84 139.9 1642.44 139.9C1656.84 139.9 1668.14 143.5 1676.34 150.7C1684.74 157.9 1688.94 168.6 1688.94 182.8V289L1709.94 292V298H1640.94V292L1658.94 289V183.4C1658.94 173 1656.84 165 1652.64 159.4C1648.44 153.6 1641.94 150.7 1633.14 150.7C1623.94 150.7 1615.04 154.1 1606.44 160.9C1598.04 167.5 1590.54 175.7 1583.94 185.5V289L1601.94 292V298H1532.94V292ZM1807.37 301C1792.57 301 1779.17 297.7 1767.17 291.1C1755.17 284.3 1745.67 274.8 1738.67 262.6C1731.67 250.4 1728.17 236.3 1728.17 220.3C1728.17 204.3 1731.57 190.3 1738.37 178.3C1745.37 166.1 1754.67 156.7 1766.27 150.1C1778.07 143.3 1791.17 139.9 1805.57 139.9C1818.17 139.9 1829.47 142.7 1839.47 148.3C1849.47 153.9 1857.27 161.7 1862.87 171.7C1868.47 181.5 1871.37 192.8 1871.57 205.6H1761.17V235.3C1761.17 252.9 1765.07 267.2 1772.87 278.2C1780.87 289 1792.37 294.4 1807.37 294.4C1821.17 294.4 1833.37 290.5 1843.97 282.7C1854.57 274.9 1861.07 264.8 1863.47 252.4H1870.37C1867.57 267.2 1860.47 279 1849.07 287.8C1837.67 296.6 1823.77 301 1807.37 301ZM1838.57 198.1C1838.57 180.7 1835.87 167.8 1830.47 159.4C1825.07 150.8 1816.67 146.5 1805.27 146.5C1791.87 146.5 1781.47 151.2 1774.07 160.6C1766.67 170 1762.47 182.5 1761.47 198.1H1838.57ZM1955.44 301C1939.04 301 1925.34 297.5 1914.34 290.5C1903.34 283.5 1897.84 274.4 1897.84 263.2C1897.84 257.4 1899.34 252.9 1902.34 249.7C1905.54 246.3 1909.74 244.6 1914.94 244.6C1918.94 244.6 1922.34 245.6 1925.14 247.6C1927.94 249.6 1929.94 252.4 1931.14 256C1926.74 260.8 1924.54 265.9 1924.54 271.3C1924.54 277.5 1927.34 282.9 1932.94 287.5C1938.54 292.1 1946.04 294.4 1955.44 294.4C1968.04 294.4 1978.34 291.6 1986.34 286C1994.34 280.2 1998.34 272.5 1998.34 262.9C1998.34 257.3 1996.64 253.1 1993.24 250.3C1989.84 247.5 1983.24 244.3 1973.44 240.7L1928.14 224.2C1910.34 217.8 1901.44 205.9 1901.44 188.5C1901.44 174.3 1906.34 162.7 1916.14 153.7C1925.94 144.5 1939.44 139.9 1956.64 139.9C1970.84 139.9 1982.94 143.2 1992.94 149.8C2003.14 156.2 2008.24 165.4 2008.24 177.4C2008.24 182.2 2006.94 186.1 2004.34 189.1C2001.74 191.9 1998.34 193.3 1994.14 193.3C1989.94 193.3 1986.44 192.2 1983.64 190C1981.04 187.6 1979.74 184.4 1979.74 180.4C1982.34 178.4 1984.14 176.3 1985.14 174.1C1986.14 171.7 1986.64 168.9 1986.64 165.7C1986.64 160.1 1984.14 155.5 1979.14 151.9C1974.34 148.3 1966.84 146.5 1956.64 146.5C1947.84 146.5 1940.24 147.9 1933.84 150.7C1927.64 153.3 1922.94 156.8 1919.74 161.2C1916.54 165.6 1914.94 170.1 1914.94 174.7C1914.94 179.5 1916.64 183.3 1920.04 186.1C1923.64 188.9 1930.14 192 1939.54 195.4L1981.54 210.4C1991.34 214 1998.74 219 2003.74 225.4C2008.74 231.8 2011.24 240.1 2011.24 250.3C2011.24 264.9 2006.64 277 1997.44 286.6C1988.24 296.2 1974.24 301 1955.44 301Z" fill="white"/>
<path d="M583 483C582.333 483 581.767 482.8 581.3 482.4C580.9 481.933 580.7 481.367 580.7 480.7V415.4C580.7 414.667 580.9 414.1 581.3 413.7C581.767 413.233 582.333 413 583 413H623.8C624.533 413 625.1 413.233 625.5 413.7C625.967 414.1 626.2 414.667 626.2 415.4V419.4C626.2 420.067 625.967 420.633 625.5 421.1C625.1 421.5 624.533 421.7 623.8 421.7H590.4V445H621.8C622.533 445 623.1 445.233 623.5 445.7C623.967 446.1 624.2 446.667 624.2 447.4V451.4C624.2 452.067 623.967 452.633 623.5 453.1C623.033 453.5 622.467 453.7 621.8 453.7H590.4V480.7C590.4 481.367 590.167 481.933 589.7 482.4C589.233 482.8 588.667 483 588 483H583ZM652.869 484C649.602 484 646.569 483.333 643.769 482C640.969 480.667 638.735 478.867 637.069 476.6C635.469 474.267 634.669 471.7 634.669 468.9C634.669 464.5 636.469 460.9 640.069 458.1C643.735 455.233 648.669 453.367 654.869 452.5L669.769 450.4V447.5C669.769 440.7 665.869 437.3 658.069 437.3C655.135 437.3 652.735 437.933 650.869 439.2C649.002 440.4 647.602 441.833 646.669 443.5C646.469 444.1 646.202 444.533 645.869 444.8C645.602 445.067 645.202 445.2 644.669 445.2H640.369C639.769 445.2 639.235 445 638.769 444.6C638.369 444.133 638.169 443.6 638.169 443C638.235 441.4 638.969 439.6 640.369 437.6C641.835 435.533 644.069 433.767 647.069 432.3C650.069 430.767 653.769 430 658.169 430C665.635 430 671.002 431.767 674.269 435.3C677.535 438.767 679.169 443.1 679.169 448.3V480.7C679.169 481.367 678.935 481.933 678.469 482.4C678.069 482.8 677.535 483 676.869 483H672.269C671.602 483 671.035 482.8 670.569 482.4C670.169 481.933 669.969 481.367 669.969 480.7V476.4C668.502 478.533 666.369 480.333 663.569 481.8C660.769 483.267 657.202 484 652.869 484ZM654.969 476.5C659.302 476.5 662.835 475.1 665.569 472.3C668.369 469.433 669.769 465.333 669.769 460V457.2L658.169 458.9C653.435 459.567 649.869 460.7 647.469 462.3C645.069 463.833 643.869 465.8 643.869 468.2C643.869 470.867 644.969 472.933 647.169 474.4C649.369 475.8 651.969 476.5 654.969 476.5ZM699.345 483C698.678 483 698.111 482.8 697.645 482.4C697.245 481.933 697.045 481.367 697.045 480.7V433.3C697.045 432.633 697.245 432.1 697.645 431.7C698.111 431.233 698.678 431 699.345 431H703.845C704.511 431 705.045 431.233 705.445 431.7C705.911 432.1 706.145 432.633 706.145 433.3V436.8C709.611 432.267 714.445 430 720.645 430C728.045 430 733.278 433.067 736.345 439.2C737.945 436.4 740.211 434.167 743.145 432.5C746.078 430.833 749.378 430 753.045 430C758.511 430 762.978 431.867 766.445 435.6C769.911 439.333 771.645 444.733 771.645 451.8V480.7C771.645 481.367 771.411 481.933 770.945 482.4C770.545 482.8 770.011 483 769.345 483H764.645C763.978 483 763.411 482.8 762.945 482.4C762.545 481.933 762.345 481.367 762.345 480.7V452.7C762.345 447.5 761.245 443.767 759.045 441.5C756.911 439.233 754.078 438.1 750.545 438.1C747.411 438.1 744.711 439.267 742.445 441.6C740.178 443.867 739.045 447.567 739.045 452.7V480.7C739.045 481.367 738.811 481.933 738.345 482.4C737.945 482.8 737.411 483 736.745 483H732.045C731.378 483 730.811 482.8 730.345 482.4C729.945 481.933 729.745 481.367 729.745 480.7V452.7C729.745 447.5 728.611 443.767 726.345 441.5C724.145 439.233 721.345 438.1 717.945 438.1C714.811 438.1 712.111 439.267 709.845 441.6C707.578 443.867 706.445 447.533 706.445 452.6V480.7C706.445 481.367 706.211 481.933 705.745 482.4C705.345 482.8 704.811 483 704.145 483H699.345ZM790.912 421.3C790.245 421.3 789.678 421.1 789.212 420.7C788.812 420.233 788.612 419.667 788.612 419V413.6C788.612 412.933 788.812 412.367 789.212 411.9C789.678 411.433 790.245 411.2 790.912 411.2H797.212C797.878 411.2 798.445 411.433 798.912 411.9C799.378 412.367 799.612 412.933 799.612 413.6V419C799.612 419.667 799.378 420.233 798.912 420.7C798.445 421.1 797.878 421.3 797.212 421.3H790.912ZM791.712 483C791.045 483 790.478 482.8 790.012 482.4C789.612 481.933 789.412 481.367 789.412 480.7V433.3C789.412 432.633 789.612 432.1 790.012 431.7C790.478 431.233 791.045 431 791.712 431H796.512C797.178 431 797.712 431.233 798.112 431.7C798.578 432.1 798.812 432.633 798.812 433.3V480.7C798.812 481.367 798.578 481.933 798.112 482.4C797.712 482.8 797.178 483 796.512 483H791.712ZM819.53 483C818.864 483 818.297 482.8 817.83 482.4C817.43 481.933 817.23 481.367 817.23 480.7V414.3C817.23 413.633 817.43 413.1 817.83 412.7C818.297 412.233 818.864 412 819.53 412H824.23C824.897 412 825.43 412.233 825.83 412.7C826.297 413.1 826.53 413.633 826.53 414.3V480.7C826.53 481.367 826.297 481.933 825.83 482.4C825.43 482.8 824.897 483 824.23 483H819.53ZM854.047 502C853.514 502 853.047 501.8 852.647 501.4C852.247 501 852.047 500.533 852.047 500C852.047 499.533 852.214 498.933 852.547 498.2L860.247 479.9L841.147 434.8C840.814 433.933 840.647 433.367 840.647 433.1C840.647 432.5 840.847 432 841.247 431.6C841.647 431.2 842.147 431 842.747 431H847.647C848.714 431 849.514 431.567 850.047 432.7L865.247 469.1L880.847 432.7C881.38 431.567 882.214 431 883.347 431H888.047C888.647 431 889.147 431.2 889.547 431.6C889.947 432 890.147 432.467 890.147 433C890.147 433.2 889.98 433.8 889.647 434.8L861.247 500.3C860.714 501.433 859.88 502 858.747 502H854.047ZM903.079 457.2C902.412 457.2 901.846 457 901.379 456.6C900.979 456.133 900.779 455.567 900.779 454.9V451.1C900.779 450.433 900.979 449.9 901.379 449.5C901.846 449.033 902.412 448.8 903.079 448.8H933.079C933.746 448.8 934.279 449.033 934.679 449.5C935.146 449.9 935.379 450.433 935.379 451.1V454.9C935.379 455.567 935.146 456.133 934.679 456.6C934.279 457 933.746 457.2 933.079 457.2H903.079ZM974.516 484C967.183 484 961.483 481.933 957.416 477.8C953.416 473.667 951.283 468.167 951.016 461.3L950.916 457L951.016 452.7C951.283 445.9 953.45 440.433 957.516 436.3C961.583 432.1 967.25 430 974.516 430C981.783 430 987.45 432.1 991.516 436.3C995.583 440.433 997.75 445.9 998.016 452.7C998.083 453.433 998.116 454.867 998.116 457C998.116 459.133 998.083 460.567 998.016 461.3C997.75 468.167 995.583 473.667 991.516 477.8C987.516 481.933 981.85 484 974.516 484ZM974.516 476.3C978.716 476.3 982.016 474.967 984.416 472.3C986.883 469.633 988.216 465.8 988.416 460.8C988.483 460.133 988.516 458.867 988.516 457C988.516 455.133 988.483 453.867 988.416 453.2C988.216 448.2 986.883 444.367 984.416 441.7C982.016 439.033 978.716 437.7 974.516 437.7C970.316 437.7 966.983 439.033 964.516 441.7C962.05 444.367 960.75 448.2 960.616 453.2L960.516 457L960.616 460.8C960.75 465.8 962.05 469.633 964.516 472.3C966.983 474.967 970.316 476.3 974.516 476.3ZM1026.57 483C1025.7 483 1025.04 482.8 1024.57 482.4C1024.1 482 1023.7 481.367 1023.37 480.5L1009.17 434.1L1008.97 433.1C1008.97 432.5 1009.17 432 1009.57 431.6C1010.04 431.2 1010.54 431 1011.07 431H1015.47C1016.14 431 1016.67 431.2 1017.07 431.6C1017.54 431.933 1017.84 432.3 1017.97 432.7L1029.07 470.4L1040.97 433.1C1041.1 432.567 1041.4 432.1 1041.87 431.7C1042.34 431.233 1042.97 431 1043.77 431H1047.17C1047.97 431 1048.6 431.233 1049.07 431.7C1049.54 432.1 1049.84 432.567 1049.97 433.1L1061.87 470.4L1072.97 432.7C1073.04 432.367 1073.27 432 1073.67 431.6C1074.14 431.2 1074.7 431 1075.37 431H1079.87C1080.4 431 1080.87 431.2 1081.27 431.6C1081.67 432 1081.87 432.5 1081.87 433.1L1081.67 434.1L1067.57 480.5C1067.24 481.367 1066.84 482 1066.37 482.4C1065.9 482.8 1065.2 483 1064.27 483H1060.37C1058.57 483 1057.47 482.167 1057.07 480.5L1045.47 444.7L1033.87 480.5C1033.34 482.167 1032.2 483 1030.47 483H1026.57ZM1098.75 483C1098.08 483 1097.51 482.8 1097.05 482.4C1096.65 481.933 1096.45 481.367 1096.45 480.7V433.3C1096.45 432.633 1096.65 432.1 1097.05 431.7C1097.51 431.233 1098.08 431 1098.75 431H1103.45C1104.11 431 1104.65 431.233 1105.05 431.7C1105.51 432.1 1105.75 432.633 1105.75 433.3V437.7C1107.68 435.233 1109.95 433.333 1112.55 432C1115.21 430.667 1118.51 430 1122.45 430C1128.85 430 1133.81 432.067 1137.35 436.2C1140.95 440.267 1142.75 445.7 1142.75 452.5V480.7C1142.75 481.367 1142.51 481.933 1142.05 482.4C1141.65 482.8 1141.11 483 1140.45 483H1135.45C1134.78 483 1134.21 482.8 1133.75 482.4C1133.35 481.933 1133.15 481.367 1133.15 480.7V453C1133.15 448.267 1131.98 444.6 1129.65 442C1127.38 439.4 1124.08 438.1 1119.75 438.1C1115.55 438.1 1112.21 439.433 1109.75 442.1C1107.28 444.7 1106.05 448.333 1106.05 453V480.7C1106.05 481.367 1105.81 481.933 1105.35 482.4C1104.95 482.8 1104.41 483 1103.75 483H1098.75ZM1181.39 484C1174.52 484 1169.02 481.9 1164.89 477.7C1160.82 473.433 1158.59 467.633 1158.19 460.3L1158.09 456.9L1158.19 453.6C1158.66 446.4 1160.92 440.667 1164.99 436.4C1169.12 432.133 1174.56 430 1181.29 430C1188.69 430 1194.42 432.367 1198.49 437.1C1202.56 441.767 1204.59 448.1 1204.59 456.1V457.8C1204.59 458.467 1204.36 459.033 1203.89 459.5C1203.49 459.9 1202.96 460.1 1202.29 460.1H1167.69V461C1167.89 465.333 1169.19 469.033 1171.59 472.1C1174.06 475.1 1177.29 476.6 1181.29 476.6C1184.36 476.6 1186.86 476 1188.79 474.8C1190.79 473.533 1192.26 472.233 1193.19 470.9C1193.79 470.1 1194.22 469.633 1194.49 469.5C1194.82 469.3 1195.39 469.2 1196.19 469.2H1201.09C1201.69 469.2 1202.19 469.367 1202.59 469.7C1202.99 470.033 1203.19 470.5 1203.19 471.1C1203.19 472.567 1202.26 474.333 1200.39 476.4C1198.59 478.467 1196.02 480.267 1192.69 481.8C1189.42 483.267 1185.66 484 1181.39 484ZM1195.09 453.2V452.9C1195.09 448.3 1193.82 444.567 1191.29 441.7C1188.82 438.767 1185.49 437.3 1181.29 437.3C1177.09 437.3 1173.76 438.767 1171.29 441.7C1168.89 444.567 1167.69 448.3 1167.69 452.9V453.2H1195.09ZM1239.05 484C1232.12 484 1226.88 481.733 1223.35 477.2C1219.82 472.667 1217.95 466.933 1217.75 460L1217.65 457L1217.75 454C1217.95 447.133 1219.82 441.433 1223.35 436.9C1226.88 432.3 1232.12 430 1239.05 430C1245.92 430 1251.32 432.433 1255.25 437.3V414.3C1255.25 413.633 1255.45 413.1 1255.85 412.7C1256.32 412.233 1256.88 412 1257.55 412H1262.35C1263.02 412 1263.55 412.233 1263.95 412.7C1264.42 413.1 1264.65 413.633 1264.65 414.3V480.7C1264.65 481.367 1264.42 481.933 1263.95 482.4C1263.55 482.8 1263.02 483 1262.35 483H1257.85C1257.18 483 1256.62 482.8 1256.15 482.4C1255.75 481.933 1255.55 481.367 1255.55 480.7V476.5C1251.68 481.5 1246.18 484 1239.05 484ZM1241.15 475.9C1245.75 475.9 1249.18 474.4 1251.45 471.4C1253.78 468.333 1255.05 464.7 1255.25 460.5C1255.32 459.767 1255.35 458.5 1255.35 456.7C1255.35 454.833 1255.32 453.533 1255.25 452.8C1255.12 448.867 1253.85 445.433 1251.45 442.5C1249.05 439.567 1245.62 438.1 1241.15 438.1C1236.42 438.1 1232.95 439.567 1230.75 442.5C1228.62 445.433 1227.45 449.3 1227.25 454.1L1227.15 457C1227.15 469.6 1231.82 475.9 1241.15 475.9ZM1322.49 483C1321.62 483 1320.96 482.8 1320.49 482.4C1320.02 482 1319.62 481.367 1319.29 480.5L1305.09 434.1L1304.89 433.1C1304.89 432.5 1305.09 432 1305.49 431.6C1305.96 431.2 1306.46 431 1306.99 431H1311.39C1312.06 431 1312.59 431.2 1312.99 431.6C1313.46 431.933 1313.76 432.3 1313.89 432.7L1324.99 470.4L1336.89 433.1C1337.02 432.567 1337.32 432.1 1337.79 431.7C1338.26 431.233 1338.89 431 1339.69 431H1343.09C1343.89 431 1344.52 431.233 1344.99 431.7C1345.46 432.1 1345.76 432.567 1345.89 433.1L1357.79 470.4L1368.89 432.7C1368.96 432.367 1369.19 432 1369.59 431.6C1370.06 431.2 1370.62 431 1371.29 431H1375.79C1376.32 431 1376.79 431.2 1377.19 431.6C1377.59 432 1377.79 432.5 1377.79 433.1L1377.59 434.1L1363.49 480.5C1363.16 481.367 1362.76 482 1362.29 482.4C1361.82 482.8 1361.12 483 1360.19 483H1356.29C1354.49 483 1353.39 482.167 1352.99 480.5L1341.39 444.7L1329.79 480.5C1329.26 482.167 1328.12 483 1326.39 483H1322.49ZM1393.86 421.3C1393.2 421.3 1392.63 421.1 1392.16 420.7C1391.76 420.233 1391.56 419.667 1391.56 419V413.6C1391.56 412.933 1391.76 412.367 1392.16 411.9C1392.63 411.433 1393.2 411.2 1393.86 411.2H1400.16C1400.83 411.2 1401.4 411.433 1401.86 411.9C1402.33 412.367 1402.56 412.933 1402.56 413.6V419C1402.56 419.667 1402.33 420.233 1401.86 420.7C1401.4 421.1 1400.83 421.3 1400.16 421.3H1393.86ZM1394.66 483C1394 483 1393.43 482.8 1392.96 482.4C1392.56 481.933 1392.36 481.367 1392.36 480.7V433.3C1392.36 432.633 1392.56 432.1 1392.96 431.7C1393.43 431.233 1394 431 1394.66 431H1399.46C1400.13 431 1400.66 431.233 1401.06 431.7C1401.53 432.1 1401.76 432.633 1401.76 433.3V480.7C1401.76 481.367 1401.53 481.933 1401.06 482.4C1400.66 482.8 1400.13 483 1399.46 483H1394.66ZM1422.38 483C1421.72 483 1421.15 482.8 1420.68 482.4C1420.28 481.933 1420.08 481.367 1420.08 480.7V433.3C1420.08 432.633 1420.28 432.1 1420.68 431.7C1421.15 431.233 1421.72 431 1422.38 431H1427.08C1427.75 431 1428.28 431.233 1428.68 431.7C1429.15 432.1 1429.38 432.633 1429.38 433.3V437.7C1431.32 435.233 1433.58 433.333 1436.18 432C1438.85 430.667 1442.15 430 1446.08 430C1452.48 430 1457.45 432.067 1460.98 436.2C1464.58 440.267 1466.38 445.7 1466.38 452.5V480.7C1466.38 481.367 1466.15 481.933 1465.68 482.4C1465.28 482.8 1464.75 483 1464.08 483H1459.08C1458.42 483 1457.85 482.8 1457.38 482.4C1456.98 481.933 1456.78 481.367 1456.78 480.7V453C1456.78 448.267 1455.62 444.6 1453.28 442C1451.02 439.4 1447.72 438.1 1443.38 438.1C1439.18 438.1 1435.85 439.433 1433.38 442.1C1430.92 444.7 1429.68 448.333 1429.68 453V480.7C1429.68 481.367 1429.45 481.933 1428.98 482.4C1428.58 482.8 1428.05 483 1427.38 483H1422.38ZM1505.03 484C1498.16 484 1492.66 481.9 1488.53 477.7C1484.46 473.433 1482.23 467.633 1481.83 460.3L1481.73 456.9L1481.83 453.6C1482.29 446.4 1484.56 440.667 1488.63 436.4C1492.76 432.133 1498.19 430 1504.93 430C1512.33 430 1518.06 432.367 1522.13 437.1C1526.19 441.767 1528.23 448.1 1528.23 456.1V457.8C1528.23 458.467 1527.99 459.033 1527.53 459.5C1527.13 459.9 1526.59 460.1 1525.93 460.1H1491.33V461C1491.53 465.333 1492.83 469.033 1495.23 472.1C1497.69 475.1 1500.93 476.6 1504.93 476.6C1507.99 476.6 1510.49 476 1512.43 474.8C1514.43 473.533 1515.89 472.233 1516.83 470.9C1517.43 470.1 1517.86 469.633 1518.13 469.5C1518.46 469.3 1519.03 469.2 1519.83 469.2H1524.73C1525.33 469.2 1525.83 469.367 1526.23 469.7C1526.63 470.033 1526.83 470.5 1526.83 471.1C1526.83 472.567 1525.89 474.333 1524.03 476.4C1522.23 478.467 1519.66 480.267 1516.33 481.8C1513.06 483.267 1509.29 484 1505.03 484ZM1518.73 453.2V452.9C1518.73 448.3 1517.46 444.567 1514.93 441.7C1512.46 438.767 1509.13 437.3 1504.93 437.3C1500.73 437.3 1497.39 438.767 1494.93 441.7C1492.53 444.567 1491.33 448.3 1491.33 452.9V453.2H1518.73ZM1545.99 483C1545.32 483 1544.75 482.8 1544.29 482.4C1543.89 481.933 1543.69 481.367 1543.69 480.7V433.4C1543.69 432.733 1543.89 432.167 1544.29 431.7C1544.75 431.233 1545.32 431 1545.99 431H1550.59C1551.25 431 1551.82 431.233 1552.29 431.7C1552.75 432.167 1552.99 432.733 1552.99 433.4V437.8C1555.72 433.267 1560.39 431 1566.99 431H1570.89C1571.55 431 1572.09 431.233 1572.49 431.7C1572.95 432.1 1573.19 432.633 1573.19 433.3V437.4C1573.19 438.067 1572.95 438.6 1572.49 439C1572.09 439.4 1571.55 439.6 1570.89 439.6H1564.89C1561.29 439.6 1558.45 440.667 1556.39 442.8C1554.32 444.867 1553.29 447.7 1553.29 451.3V480.7C1553.29 481.367 1553.05 481.933 1552.59 482.4C1552.12 482.8 1551.55 483 1550.89 483H1545.99ZM1594.27 502C1593.74 502 1593.27 501.8 1592.87 501.4C1592.47 501 1592.27 500.533 1592.27 500C1592.27 499.533 1592.44 498.933 1592.77 498.2L1600.47 479.9L1581.37 434.8C1581.04 433.933 1580.87 433.367 1580.87 433.1C1580.87 432.5 1581.07 432 1581.47 431.6C1581.87 431.2 1582.37 431 1582.97 431H1587.87C1588.94 431 1589.74 431.567 1590.27 432.7L1605.47 469.1L1621.07 432.7C1621.61 431.567 1622.44 431 1623.57 431H1628.27C1628.87 431 1629.37 431.2 1629.77 431.6C1630.17 432 1630.37 432.467 1630.37 433C1630.37 433.2 1630.21 433.8 1629.87 434.8L1601.47 500.3C1600.94 501.433 1600.11 502 1598.97 502H1594.27ZM1690.52 484C1685.99 484 1681.96 483.167 1678.42 481.5C1674.96 479.833 1672.26 477.5 1670.32 474.5C1668.39 471.5 1667.42 468.1 1667.42 464.3C1667.42 460.1 1668.66 456.533 1671.12 453.6C1673.59 450.6 1677.06 447.8 1681.52 445.2C1678.39 441.867 1676.16 438.967 1674.82 436.5C1673.56 433.967 1672.92 431.3 1672.92 428.5C1672.92 425.5 1673.69 422.767 1675.22 420.3C1676.76 417.767 1678.96 415.767 1681.82 414.3C1684.69 412.767 1687.96 412 1691.62 412C1695.22 412 1698.42 412.733 1701.22 414.2C1704.02 415.6 1706.19 417.567 1707.72 420.1C1709.26 422.567 1710.02 425.333 1710.02 428.4C1710.02 432.467 1708.72 435.867 1706.12 438.6C1703.52 441.333 1699.76 444.1 1694.82 446.9L1711.82 463.6C1714.49 459.133 1716.29 454.067 1717.22 448.4C1717.29 447.8 1717.49 447.333 1717.82 447C1718.22 446.6 1718.72 446.4 1719.32 446.4H1723.72C1724.32 446.4 1724.82 446.6 1725.22 447C1725.62 447.4 1725.82 447.9 1725.82 448.5C1725.76 451.433 1724.99 454.8 1723.52 458.6C1722.12 462.333 1720.19 465.933 1717.72 469.4L1727.92 479.6C1728.52 480.2 1728.82 480.7 1728.82 481.1C1728.82 482.367 1728.16 483 1726.82 483H1721.22C1719.96 483 1719.06 482.667 1718.52 482L1711.92 475.5C1706.12 481.167 1698.99 484 1690.52 484ZM1689.32 441.1C1693.32 438.9 1696.32 436.9 1698.32 435.1C1700.32 433.3 1701.32 431.1 1701.32 428.5C1701.32 425.9 1700.39 423.8 1698.52 422.2C1696.66 420.533 1694.36 419.7 1691.62 419.7C1688.96 419.7 1686.66 420.533 1684.72 422.2C1682.86 423.8 1681.92 425.933 1681.92 428.6C1681.92 430.4 1682.42 432.2 1683.42 434C1684.49 435.733 1686.46 438.1 1689.32 441.1ZM1690.52 476C1693.26 476 1695.96 475.433 1698.62 474.3C1701.29 473.167 1703.72 471.5 1705.92 469.3L1687.22 451.1C1683.82 453.033 1681.19 455 1679.32 457C1677.52 459 1676.62 461.367 1676.62 464.1C1676.62 467.767 1677.99 470.667 1680.72 472.8C1683.46 474.933 1686.72 476 1690.52 476ZM1788.17 484C1783.5 484 1779.57 483.267 1776.37 481.8C1773.24 480.267 1770.87 478.533 1769.27 476.6C1767.74 474.667 1766.97 473.067 1766.97 471.8C1766.97 471.133 1767.2 470.633 1767.67 470.3C1768.2 469.9 1768.74 469.7 1769.27 469.7H1773.77C1774.44 469.7 1775.04 470.033 1775.57 470.7C1777.17 472.567 1778.9 474.033 1780.77 475.1C1782.64 476.167 1785.14 476.7 1788.27 476.7C1791.74 476.7 1794.54 476.033 1796.67 474.7C1798.87 473.3 1799.97 471.4 1799.97 469C1799.97 467.4 1799.5 466.1 1798.57 465.1C1797.7 464.033 1796.17 463.133 1793.97 462.4C1791.84 461.6 1788.64 460.733 1784.37 459.8C1778.57 458.533 1774.44 456.7 1771.97 454.3C1769.57 451.9 1768.37 448.8 1768.37 445C1768.37 442.467 1769.1 440.067 1770.57 437.8C1772.1 435.467 1774.3 433.6 1777.17 432.2C1780.1 430.733 1783.6 430 1787.67 430C1791.94 430 1795.57 430.7 1798.57 432.1C1801.57 433.5 1803.8 435.167 1805.27 437.1C1806.8 438.967 1807.57 440.533 1807.57 441.8C1807.57 442.4 1807.34 442.9 1806.87 443.3C1806.47 443.7 1805.97 443.9 1805.37 443.9H1801.17C1800.37 443.9 1799.7 443.567 1799.17 442.9C1798.1 441.633 1797.17 440.667 1796.37 440C1795.64 439.267 1794.54 438.633 1793.07 438.1C1791.67 437.567 1789.87 437.3 1787.67 437.3C1784.47 437.3 1782 438 1780.27 439.4C1778.54 440.733 1777.67 442.5 1777.67 444.7C1777.67 446.1 1778.04 447.3 1778.77 448.3C1779.5 449.233 1780.9 450.1 1782.97 450.9C1785.1 451.7 1788.17 452.533 1792.17 453.4C1798.5 454.733 1802.97 456.667 1805.57 459.2C1808.24 461.667 1809.57 464.833 1809.57 468.7C1809.57 471.567 1808.74 474.167 1807.07 476.5C1805.4 478.833 1802.94 480.667 1799.67 482C1796.47 483.333 1792.64 484 1788.17 484ZM1827.05 483C1826.38 483 1825.81 482.8 1825.35 482.4C1824.95 481.933 1824.75 481.367 1824.75 480.7V414.3C1824.75 413.633 1824.95 413.1 1825.35 412.7C1825.81 412.233 1826.38 412 1827.05 412H1832.05C1832.71 412 1833.25 412.233 1833.65 412.7C1834.11 413.1 1834.35 413.633 1834.35 414.3V437.6C1836.28 435.133 1838.55 433.267 1841.15 432C1843.75 430.667 1846.98 430 1850.85 430C1857.25 430 1862.21 432.067 1865.75 436.2C1869.35 440.267 1871.15 445.7 1871.15 452.5V480.7C1871.15 481.367 1870.91 481.933 1870.45 482.4C1870.05 482.8 1869.51 483 1868.85 483H1863.85C1863.18 483 1862.61 482.8 1862.15 482.4C1861.75 481.933 1861.55 481.367 1861.55 480.7V453C1861.55 448.267 1860.38 444.6 1858.05 442C1855.78 439.4 1852.48 438.1 1848.15 438.1C1843.95 438.1 1840.58 439.433 1838.05 442.1C1835.58 444.7 1834.35 448.333 1834.35 453V480.7C1834.35 481.367 1834.11 481.933 1833.65 482.4C1833.25 482.8 1832.71 483 1832.05 483H1827.05ZM1910.38 484C1903.05 484 1897.35 481.933 1893.28 477.8C1889.28 473.667 1887.15 468.167 1886.88 461.3L1886.78 457L1886.88 452.7C1887.15 445.9 1889.32 440.433 1893.38 436.3C1897.45 432.1 1903.12 430 1910.38 430C1917.65 430 1923.32 432.1 1927.38 436.3C1931.45 440.433 1933.62 445.9 1933.88 452.7C1933.95 453.433 1933.98 454.867 1933.98 457C1933.98 459.133 1933.95 460.567 1933.88 461.3C1933.62 468.167 1931.45 473.667 1927.38 477.8C1923.38 481.933 1917.72 484 1910.38 484ZM1910.38 476.3C1914.58 476.3 1917.88 474.967 1920.28 472.3C1922.75 469.633 1924.08 465.8 1924.28 460.8C1924.35 460.133 1924.38 458.867 1924.38 457C1924.38 455.133 1924.35 453.867 1924.28 453.2C1924.08 448.2 1922.75 444.367 1920.28 441.7C1917.88 439.033 1914.58 437.7 1910.38 437.7C1906.18 437.7 1902.85 439.033 1900.38 441.7C1897.92 444.367 1896.62 448.2 1896.48 453.2L1896.38 457L1896.48 460.8C1896.62 465.8 1897.92 469.633 1900.38 472.3C1902.85 474.967 1906.18 476.3 1910.38 476.3ZM1952.41 502C1951.74 502 1951.17 501.767 1950.71 501.3C1950.31 500.9 1950.11 500.367 1950.11 499.7V433.3C1950.11 432.633 1950.31 432.1 1950.71 431.7C1951.17 431.233 1951.74 431 1952.41 431H1957.01C1957.67 431 1958.21 431.233 1958.61 431.7C1959.07 432.1 1959.31 432.633 1959.31 433.3V437.7C1963.04 432.567 1968.51 430 1975.71 430C1982.71 430 1987.94 432.2 1991.41 436.6C1994.94 441 1996.84 446.667 1997.11 453.6C1997.17 454.333 1997.21 455.467 1997.21 457C1997.21 458.533 1997.17 459.667 1997.11 460.4C1996.84 467.267 1994.94 472.933 1991.41 477.4C1987.87 481.8 1982.64 484 1975.71 484C1968.77 484 1963.37 481.5 1959.51 476.5V499.7C1959.51 500.367 1959.31 500.9 1958.91 501.3C1958.51 501.767 1957.97 502 1957.31 502H1952.41ZM1973.61 475.9C1978.34 475.9 1981.77 474.433 1983.91 471.5C1986.11 468.567 1987.31 464.7 1987.51 459.9C1987.57 459.233 1987.61 458.267 1987.61 457C1987.61 444.4 1982.94 438.1 1973.61 438.1C1969.01 438.1 1965.54 439.633 1963.21 442.7C1960.94 445.7 1959.71 449.3 1959.51 453.5L1959.41 457.3L1959.51 461.2C1959.64 465.133 1960.91 468.567 1963.31 471.5C1965.71 474.433 1969.14 475.9 1973.61 475.9Z" fill="white" fill-opacity="0.8"/>
</svg>
