<svg width="1096" height="568" viewBox="0 0 1096 568" fill="none" xmlns="http://www.w3.org/2000/svg">
<rect width="1096" height="568" fill="#1B1613" fill-opacity="0.41"/>
<path fill-rule="evenodd" clip-rule="evenodd" d="M471.941 136.443H464.724V141.5H461.837V145.83H464.724V154.491C464.724 158.821 468.333 159.543 471.22 159.543H475.55V154.491H473.385C471.941 154.491 471.941 153.773 471.941 152.325V145.83H475.55V141.5H471.941V136.443V136.443ZM476.272 159.538H483.489V150.156C483.489 147.269 484.932 146.547 486.376 146.547C487.819 146.547 488.541 147.991 488.541 150.156V159.538H495.036V147.269C495.036 142.939 492.149 141.495 489.262 141.495C486.376 141.495 484.932 142.217 483.489 143.661V135H476.272V159.538V159.538ZM502.975 148.713C503.697 146.547 504.418 145.826 506.584 145.826C508.749 145.826 509.47 146.547 509.47 148.713H502.975ZM515.966 152.321C515.966 145.104 513.079 141.495 505.862 141.495C500.088 141.495 496.48 145.104 496.48 150.878C496.48 156.651 500.81 159.538 506.584 159.538C510.914 159.538 514.522 158.095 515.966 154.486H509.47C508.749 155.208 508.027 155.208 506.584 155.208C504.418 155.208 502.975 153.765 502.975 152.321H515.966V152.321ZM374.514 369.548H373.071L312.451 178.303H300.182L238.837 369.548H238.115L178.939 178.303H171L233.067 376.765H243.893L305.956 186.242H306.678L368.745 376.765H378.845L442.355 178.303H434.417L374.514 369.548ZM482.05 376.765H489.984V177.581H482.05V376.765ZM554.217 376.765H562.155V264.904C562.155 220.88 586.689 181.19 634.322 181.19C668.243 181.19 697.107 200.676 697.107 246.144V376.765H705.055V245.422C705.055 199.237 676.182 173.977 634.322 173.977C595.358 173.977 570.094 197.072 562.877 227.384H562.155V178.303H554.217V376.765V376.765ZM759.9 271.399C762.057 215.832 796.699 181.19 839.284 181.19C891.248 181.19 918.669 223.049 917.947 271.399H759.9V271.399ZM925.881 279.338C928.047 224.492 900.626 173.972 838.563 173.972C793.817 173.972 751.957 211.497 751.957 277.895C751.957 337.075 777.222 382.535 838.563 381.813C884.031 381.813 917.947 353.67 923.716 308.202H915.777C909.282 351.505 878.979 373.874 837.837 373.874C781.543 373.874 760.609 332.745 759.896 279.334H925.881V279.338ZM319.669 404.916C318.947 396.256 311.73 392.651 303.791 392.651C294.409 392.651 287.191 398.425 287.191 408.525C287.191 417.907 294.409 424.398 303.791 424.398C312.451 424.398 318.947 419.346 319.669 411.412H308.843C308.121 413.577 306.678 415.742 303.791 415.742C299.461 415.742 298.739 412.133 298.739 408.525C298.739 404.916 299.456 400.586 303.791 400.586C305.234 400.586 306.678 401.308 307.399 402.029C308.121 402.751 308.121 403.473 308.121 404.916H319.669V404.916ZM375.236 408.52C375.236 399.86 370.184 392.647 358.637 392.647C347.811 392.647 342.037 399.864 342.037 408.52C342.037 416.459 347.811 424.394 358.637 424.394C370.188 424.398 375.236 416.459 375.236 408.52ZM363.693 408.52C363.693 411.407 362.971 415.738 358.641 415.738C354.311 415.738 353.589 411.407 353.589 408.52C353.589 404.912 354.306 400.582 358.641 400.582C362.967 400.586 363.693 404.916 363.693 408.52ZM396.887 423.676H408.435V411.412C408.435 404.916 411.322 402.029 415.652 402.029C417.817 402.029 419.261 402.751 419.982 402.751V392.647H417.095C412.765 392.647 409.878 394.091 408.435 397.699V393.369H396.887V423.676V423.676ZM452.459 408.52C452.459 404.912 453.177 400.582 457.511 400.582C461.842 400.582 462.563 404.912 462.563 408.52C462.563 412.129 461.842 415.738 457.511 415.738C453.177 415.738 452.459 412.129 452.459 408.52ZM440.908 433.054H453.177V420.068C454.62 422.955 457.507 424.398 461.116 424.398C471.22 424.398 474.106 415.738 474.106 408.525C474.106 400.586 469.776 392.651 461.837 392.651C456.064 392.651 453.899 394.817 452.455 396.26V393.373H440.908V433.054V433.054ZM528.957 408.52C528.957 399.86 523.905 392.647 512.357 392.647C500.81 392.647 495.758 399.864 495.758 408.52C495.758 416.459 500.81 424.394 512.357 424.394C523.905 424.398 528.957 416.459 528.957 408.52ZM517.409 408.52C517.409 411.407 516.687 415.738 512.357 415.738C508.027 415.738 507.305 411.407 507.305 408.52C507.305 404.912 508.023 400.582 512.357 400.582C516.687 400.586 517.409 404.916 517.409 408.52ZM552.051 423.676H563.599V411.412C563.599 404.916 566.486 402.029 570.816 402.029C572.981 402.029 574.425 402.751 575.146 402.751V392.647H571.538C567.929 392.647 565.042 394.091 563.599 397.699H562.877V393.369H552.051V423.676ZM613.393 412.851C613.393 415.738 611.228 417.181 609.062 417.181C606.897 417.181 605.454 415.738 605.454 414.294C605.454 412.851 606.897 412.129 609.062 411.407C610.506 410.686 612.671 410.686 613.393 409.964V412.851ZM624.94 404.195C624.94 398.421 624.94 392.647 610.51 392.647C603.293 392.647 595.358 393.369 594.637 402.029H605.462C605.462 401.308 606.184 399.143 609.793 399.143C611.958 399.143 613.401 399.864 613.401 402.029C613.401 404.195 611.958 404.195 610.514 404.916C604.741 405.638 593.198 405.638 593.198 415.02C593.198 421.516 598.25 424.402 604.023 424.402C607.632 424.402 611.24 423.681 614.127 420.794V423.681H626.392C624.949 421.516 624.949 419.35 624.949 416.464V404.195H624.94V404.195ZM663.191 383.982H650.917V393.373H645.865V400.59H650.917V415.02C650.917 422.959 656.7 423.681 661.747 423.681H668.965V415.02H666.799C663.191 415.02 663.191 413.577 663.191 410.69V400.586H668.965V393.369H663.191V383.982V383.982ZM695.664 423.676H707.215V393.369H695.664V423.676ZM695.664 389.752H707.215V381.813H695.664V389.752ZM763.509 408.52C763.509 399.86 758.448 392.647 746.905 392.647C735.362 392.647 730.31 399.864 730.31 408.52C730.31 416.459 735.362 424.394 746.905 424.394C758.448 424.394 763.509 416.459 763.509 408.52ZM751.953 408.52C751.953 411.407 751.231 415.738 746.901 415.738C742.571 415.738 741.849 411.407 741.849 408.52C741.849 404.912 742.571 400.582 746.901 400.582C751.231 400.582 751.953 404.916 751.953 408.52ZM785.878 423.676H798.143V407.803C798.143 402.751 800.308 401.308 802.473 401.308C806.081 401.308 806.081 404.195 806.081 407.803V423.676H817.629V402.751C817.629 395.534 812.577 392.647 807.525 392.647C802.473 392.647 799.586 394.091 797.421 396.977V393.369H785.873V423.676H785.878Z" fill="#C8693A"/>
</svg>
