<svg width="1096" height="568" viewBox="0 0 1096 568" fill="none" xmlns="http://www.w3.org/2000/svg">
<rect width="1096" height="568" fill="#1B1613" fill-opacity="0.41"/>
<path fill-rule="evenodd" clip-rule="evenodd" d="M283.904 193.49C286.062 197.802 288.935 199.96 285.343 204.272C285.343 205.711 282.465 207.15 280.312 207.869C276.719 206.43 277.434 202.834 274.557 200.675C264.494 206.43 253.708 210.023 243.641 215.773C239.329 216.493 235.013 218.647 230.697 220.805C222.788 222.963 214.16 227.994 206.97 232.31C204.093 235.903 197.623 235.903 196.904 240.938C196.904 252.444 191.149 262.507 190.429 274.012C186.837 276.17 188.99 282.64 186.117 286.237C187.556 287.676 186.117 289.825 188.275 289.825C207.69 279.043 231.416 275.447 250.83 266.099C253.708 267.538 258.739 261.068 260.173 268.257C260.893 272.573 257.3 274.012 254.423 276.166C251.545 276.166 249.392 277.605 246.514 276.885C245.795 274.727 242.922 276.166 242.922 273.288C237.167 274.008 234.294 279.043 229.262 279.758C222.788 287.672 214.164 290.54 205.536 296.3L204.817 295.58C197.627 298.449 191.157 302.05 185.402 305.647C183.249 314.275 186.122 322.184 185.402 330.808C188.999 332.247 185.402 335.835 185.402 338.716C183.964 345.906 188.999 355.253 183.964 361.728C181.805 366.035 187.56 370.356 181.086 373.944C176.055 374.663 176.055 368.193 171.019 369.636L168.865 364.601C171.739 354.534 164.554 345.186 170.304 335.839C167.427 334.409 169.585 330.812 169.585 327.93C170.304 321.46 171.019 312.837 171.019 305.647C169.585 304.208 171.019 300.612 171.019 299.168C172.458 282.632 179.647 270.411 181.086 253.874C181.805 250.277 186.841 245.246 181.086 243.807C179.647 242.368 181.086 240.215 180.367 238.052C185.398 236.613 181.805 230.143 186.837 230.143C195.465 217.918 211.282 216.484 223.503 210.729C239.32 200.662 259.454 202.82 275.991 195.631C279.592 197.083 279.592 191.332 283.904 193.49V193.49ZM660.659 334.413V333.694H661.379C662.817 332.255 664.247 330.817 665.686 330.097C666.406 331.536 667.125 332.975 667.125 334.413C668.564 337.282 670.002 340.164 672.876 341.603C675.034 343.761 676.472 340.164 680.074 341.603C682.942 340.164 683.662 336.567 685.824 334.413C685.824 333.694 685.824 333.694 686.544 333.694C690.86 333.694 688.702 327.215 693.014 326.496C696.611 321.469 702.361 318.587 705.239 312.122C710.989 308.525 715.305 302.055 722.495 299.177C728.974 304.213 725.372 311.402 723.214 317.872C723.934 322.188 723.214 328.658 723.214 334.413V340.164C729.684 343.761 732.562 339.445 736.159 334.413C737.657 331.494 739.597 328.824 741.909 326.496C741.19 320.026 750.537 315.718 752.696 309.959C763.482 306.371 760.604 320.745 764.921 325.772C765.64 329.369 767.07 332.251 769.228 334.409C772.106 337.278 775.707 339.436 779.295 341.598C785.045 342.318 795.108 345.906 798.709 340.16C799.429 340.16 800.867 339.44 801.587 340.16C803.025 340.879 808.057 340.879 808.057 337.282C808.776 337.282 810.215 336.563 810.934 338.001C814.522 334.413 817.404 340.879 821.72 341.598C828.91 349.507 838.977 344.476 848.32 345.186C853.347 341.598 859.106 344.476 862.694 338.716C864.852 332.246 869.173 337.278 873.48 334.409C874.2 334.409 874.2 333.69 874.919 333.69C875.639 328.654 881.389 326.492 883.547 324.342C890.737 323.623 892.895 315.714 899.36 312.837C903.677 311.398 907.269 307.801 910.866 304.208L915.182 309.235C918.051 315.714 918.051 324.338 915.902 330.808L916.612 331.527C915.182 332.246 914.463 332.966 913.743 334.405C912.305 336.554 910.866 338.712 908.708 338.712C904.4 340.87 900.08 337.993 897.211 334.405C895.053 332.966 893.614 333.685 892.175 334.405C890.737 335.835 890.017 339.431 890.017 341.594C893.614 347.345 900.803 353.819 907.273 353.1C913.752 348.064 919.498 341.594 924.538 336.558V334.409C925.977 330.812 926.688 327.211 925.249 323.623H925.977C924.538 317.868 927.407 309.959 925.977 304.208C928.846 302.77 925.977 298.453 928.846 297.738C931.723 295.58 933.882 296.3 936.755 294.142C937.474 291.983 938.913 290.545 938.913 288.387C936.755 285.518 933.162 284.798 930.285 286.237C928.846 287.676 928.127 288.387 927.407 289.825C913.033 295.58 900.084 307.09 885.71 313.556C875.643 323.623 863.418 325.062 851.912 331.532C843.284 330.093 832.498 336.558 826.752 327.935L828.91 325.776C833.937 322.188 839.696 318.587 843.284 312.841C849.763 311.402 848.32 304.213 852.632 301.335C854.07 297.747 853.351 295.585 855.509 292.707C855.509 291.268 855.509 289.83 854.79 289.11C851.912 285.522 847.6 284.083 843.284 284.803C828.19 295.589 808.057 308.525 811.654 330.097C803.736 334.413 792.959 335.124 785.045 332.255C775.707 327.939 775.707 317.872 772.829 310.683C771.391 304.932 772.829 299.177 765.64 296.308C760.604 295.589 752.696 300.616 748.375 305.656C744.787 307.095 744.067 316.442 739.027 312.845C731.838 311.407 738.308 304.937 735.439 302.059L737.597 299.901C736.159 297.032 736.878 293.431 734.001 291.273C732.562 287.685 727.531 287.685 724.653 289.115C709.559 299.901 700.212 312.845 686.544 325.781H680.793C677.196 320.754 677.196 315.003 680.793 310.687C682.942 307.81 680.074 304.937 683.662 302.778C688.697 302.778 690.141 297.028 692.29 293.431C690.86 292.712 690.86 291.273 690.86 289.834C691.571 287.685 688.702 286.246 687.263 284.807C680.793 285.527 677.916 291.277 675.757 296.313C675.757 297.752 672.88 299.182 673.599 300.62C670.731 302.778 672.169 307.81 670.011 310.687C669.292 320.754 659.225 326.5 652.755 334.418L651.316 335.848C651.316 337.286 649.158 340.164 651.316 341.603C655.624 340.883 659.221 338.006 660.659 334.413V334.413ZM836.09 300.616C838.968 299.897 841.117 297.747 843.999 297.747V300.616C843.28 300.616 843.28 300.616 842.56 301.335L845.438 302.774C839.687 309.963 833.213 319.311 824.585 322.908C823.146 315.003 828.186 305.656 836.09 300.616V300.616ZM484.504 324.347C478.034 320.75 472.999 326.496 469.406 330.817C457.186 333.694 447.119 344.48 432.74 341.603C429.143 340.164 431.301 335.848 428.428 334.413C426.99 332.255 429.148 331.536 429.148 329.378C437.056 326.5 439.934 318.592 447.123 315.003C448.562 313.565 449.281 309.968 452.155 310.687C457.19 308.529 455.032 304.217 454.313 299.901C453.593 296.313 447.843 295.593 444.965 296.313C427.709 299.901 415.488 315.008 411.891 331.54C406.136 334.418 401.11 337.291 394.635 338.01C391.043 337.291 387.446 334.422 383.853 331.54C382.415 325.07 377.379 320.754 375.225 315.003C375.225 311.407 371.633 309.248 371.633 305.656C368.755 301.34 365.158 295.589 358.688 298.458C350.78 304.937 346.468 313.56 338.559 320.75C336.401 320.75 334.247 320.03 332.808 318.592C334.967 315.723 334.247 310.683 333.528 307.805L335.686 306.375C333.528 303.498 335.686 298.458 333.528 296.308C332.089 296.308 329.935 295.589 329.216 296.308C319.873 306.375 309.087 312.845 299.739 322.188C293.984 325.066 288.953 330.097 282.483 327.215C276.013 320.026 278.171 312.122 281.763 304.213C286.075 298.458 286.075 290.549 289.672 284.079C288.233 282.64 286.795 281.202 285.36 281.202L286.08 279.043C286.08 277.605 285.36 276.885 283.922 276.166C278.171 278.324 274.574 286.233 273.859 289.825C267.389 305.647 267.389 320.745 252.291 332.251C253.73 334.409 250.133 336.558 253.01 338.721C255.164 342.318 257.322 338.001 258.765 337.282C258.046 331.531 262.358 331.532 263.797 327.215C265.235 330.093 265.955 335.843 267.394 340.16C268.113 344.476 273.864 344.476 276.741 344.476C283.211 340.879 288.247 338.721 293.278 332.251C297.594 331.531 301.187 327.215 303.345 322.903C303.345 323.623 304.064 323.623 304.064 324.342C306.937 322.903 309.095 318.587 312.692 317.863C312.692 314.275 317.724 312.837 319.886 309.955C329.229 319.302 317.728 332.246 322.04 343.033C323.478 346.621 325.637 344.471 327.795 346.621C332.107 345.182 335.703 340.87 339.3 337.273C341.458 328.645 345.77 317.859 355.118 314.271C357.276 316.429 359.43 316.429 362.307 317.14C370.216 325.768 369.497 341.59 383.875 344.467C386.753 345.897 391.784 343.748 393.942 345.897C398.973 347.336 402.57 343.748 405.443 341.59C409.04 343.748 411.198 340.151 414.072 338.712C415.51 340.87 416.949 342.309 416.949 344.467C424.858 350.218 434.925 353.815 443.548 350.218C447.865 345.901 453.615 346.621 457.927 343.748C460.805 343.028 463.682 340.151 467.275 341.59C473.03 335.111 481.653 335.111 485.97 327.206C485.224 326.5 486.663 324.347 484.504 324.347V324.347ZM429.143 314.284C431.301 308.529 436.337 309.968 441.368 305.656C444.241 309.244 439.21 311.407 438.491 314.284C434.894 317.153 432.016 320.754 427.705 322.193C423.393 320.03 429.143 317.872 429.143 314.284ZM707.397 240.943C707.397 242.382 706.677 243.101 705.958 243.82C706.677 245.978 710.265 245.259 708.116 247.413C701.637 251.725 704.519 260.357 696.611 263.95H693.733C692.294 263.23 688.706 262.511 688.706 259.638C687.267 251.01 694.457 248.852 699.492 243.82C701.637 243.101 704.515 240.224 707.397 240.943V240.943ZM308.35 238.785C307.63 245.974 301.16 248.852 299.002 254.602C295.41 256.037 291.093 256.037 288.935 253.883C283.904 243.816 296.844 243.097 301.16 238.785C304.038 238.785 306.911 235.907 308.35 238.785V238.785ZM664.971 199.241C664.252 202.119 665.691 204.992 663.532 206.43C662.822 213.62 662.102 220.809 662.102 227.998C656.347 235.907 659.944 245.974 654.904 253.883C654.904 260.353 652.755 268.981 651.316 274.732C648.439 277.609 649.158 281.921 649.158 285.518C646.281 290.545 646.281 298.453 644.842 304.213C636.933 308.52 641.254 318.587 636.933 322.188C634.775 332.975 631.182 339.445 629.744 349.511C622.554 355.262 625.436 364.605 616.799 368.206C617.519 370.365 615.369 371.084 613.211 372.514C607.456 371.803 605.303 366.044 601.706 362.456C596.679 350.231 594.516 338.725 593.078 325.781C590.919 309.244 593.797 290.553 589.481 274.736C588.042 274.736 586.612 273.297 585.173 272.578C583.734 276.17 583.015 280.487 580.857 284.083C578.708 291.273 579.418 299.897 573.668 304.217C573.668 307.095 574.387 309.968 572.948 312.845C571.509 312.845 572.229 314.284 572.229 315.723C569.36 320.03 568.641 325.781 565.759 330.097C565.039 330.817 562.881 330.817 563.601 332.255C563.601 332.975 564.32 333.694 565.039 333.694C564.32 335.843 561.443 335.843 561.443 338.721C560.723 345.91 555.692 351.665 554.253 358.135C548.503 361.013 548.503 370.36 540.594 369.641C534.843 356.696 532.685 342.318 534.843 328.654C534.124 286.237 539.155 250.286 535.563 207.145C538.44 206.426 544.91 205.707 547.788 208.584C550.665 212.177 547.788 215.054 549.946 217.932C550.665 234.468 549.226 250.286 548.507 266.823C547.068 269.7 547.788 275.451 548.507 278.328C546.349 281.206 549.226 286.961 544.91 288.391C553.538 299.897 537.001 309.244 543.471 321.469C541.313 323.627 542.752 327.939 542.752 329.378C547.783 334.413 542.752 340.883 545.625 346.634L547.783 348.792C549.222 345.195 552.814 345.915 553.538 341.603C554.258 340.164 554.977 337.286 556.416 335.848C564.324 309.968 573.672 284.083 583.739 258.918C583.019 253.887 586.616 251.729 588.766 246.693C589.485 245.259 591.643 245.974 593.801 245.974C593.801 248.132 596.679 245.974 598.109 247.413C598.828 253.887 602.425 261.072 600.267 266.827C602.425 268.266 600.267 269.705 600.267 270.42C602.425 275.451 598.828 281.206 600.986 285.522C600.986 287.68 600.267 289.83 601.706 290.549C599.548 291.988 600.267 293.427 600.267 294.865C601.706 297.743 602.425 301.335 601.706 304.213C603.144 304.932 601.706 309.963 603.144 310.683C604.583 317.153 603.864 325.777 606.741 330.097C606.741 333.694 608.891 338.006 609.61 341.603C606.741 343.042 611.049 344.48 610.329 346.63C616.799 349.507 618.238 340.16 621.835 338.721C629.024 315.718 639.091 294.146 642.688 269.7C643.407 268.981 643.407 266.823 643.407 266.103C646.276 262.511 645.557 256.756 645.557 252.444C647.715 234.468 652.755 218.651 651.312 199.956C654.181 196.364 656.339 194.205 660.659 193.486C663.532 193.49 663.532 197.802 664.971 199.241V199.241Z" fill="#C8693A"/>
</svg>
