<svg width="1096" height="568" viewBox="0 0 1096 568" fill="none" xmlns="http://www.w3.org/2000/svg">
<rect width="1096" height="568" fill="#1B1613" fill-opacity="0.41"/>
<path fill-rule="evenodd" clip-rule="evenodd" d="M165.665 262.508C169.808 263.034 171.362 265.664 172.919 269.873C179.653 284.078 185.871 298.283 192.084 311.963C193.637 315.127 197.265 324.072 198.818 328.277C199.339 328.802 199.855 328.802 200.376 328.802C200.892 328.802 201.408 328.802 201.929 328.277C204.519 319.857 210.737 307.228 214.36 299.863C217.471 306.707 223.168 319.332 226.274 328.277C226.791 328.802 227.311 328.802 227.828 328.802C228.348 328.802 228.865 328.802 228.865 328.277C233.008 317.752 237.152 307.757 241.296 297.233L248.55 280.394C254.768 266.189 255.805 263.029 260.465 262.504H262.534C263.055 261.454 263.055 260.399 262.534 259.874C259.944 259.874 256.833 260.404 253.21 260.404C250.104 260.404 246.993 259.874 243.37 259.874C242.853 260.404 242.333 261.454 243.37 262.504H246.476C248.55 262.504 249.583 263.559 249.583 265.134C249.583 266.189 248.03 270.394 246.476 274.079C245.96 276.184 240.259 289.338 238.705 294.073C235.599 301.434 232.492 308.803 229.381 315.647C226.27 308.278 222.647 300.384 219.541 292.493L218.504 290.389C218.504 289.863 219.02 288.813 219.541 287.759C221.094 284.074 225.242 275.129 227.311 271.444C229.385 267.235 231.455 263.025 235.599 262.5H238.189C239.222 261.449 238.705 260.395 238.189 259.87C236.115 259.87 231.971 260.399 228.865 260.399C224.721 260.399 222.131 259.87 219.024 259.87C218.508 260.399 218.508 261.449 219.024 262.5H222.135C225.246 262.5 225.763 264.075 222.135 272.499C220.066 277.759 217.992 281.969 216.434 285.654C213.327 279.339 210.737 273.024 208.663 268.289C206.593 263.554 206.593 263.029 210.737 262.5H213.327C213.844 261.449 213.844 260.395 212.811 259.87C210.737 259.87 207.11 260.399 201.933 260.399C197.79 260.399 194.162 259.87 191.572 259.87C190.54 260.399 190.54 261.449 191.056 262.5H193.646C196.753 263.025 198.311 265.13 199.864 268.289C204.007 276.184 207.635 284.599 210.741 292.493C211.258 293.548 211.778 294.603 211.778 295.128C211.778 295.653 210.741 297.233 210.221 299.333C207.635 305.123 205.04 310.908 202.454 315.647C196.753 303.022 190.54 290.389 185.359 277.764C182.248 270.924 180.178 265.659 180.178 264.079C180.178 263.554 181.211 262.504 183.285 262.504H185.359C186.392 261.454 186.392 260.399 185.359 259.874C181.732 259.874 176.551 260.404 173.961 260.404C170.85 260.404 166.19 259.874 163.599 259.874C163.079 260.404 162.562 261.979 163.599 262.504H165.665V262.508V262.508ZM274.445 311.963C274.445 322.487 273.928 324.072 268.231 324.597L265.641 325.122C265.12 325.647 265.12 327.227 265.641 327.752C270.817 327.227 274.445 327.227 278.593 327.227C282.736 327.227 285.847 327.227 291.024 327.752C291.54 327.227 291.54 325.647 291.024 325.122L288.433 324.597C282.736 324.072 282.736 322.483 282.736 311.963V275.659C282.736 265.134 282.736 263.029 288.433 262.504H291.024C291.54 261.979 291.54 260.399 291.024 259.874C285.843 259.874 282.736 260.404 278.593 260.404C274.449 260.404 270.822 259.874 265.641 259.874C265.12 260.404 265.12 261.979 265.641 262.504H268.231C273.928 263.029 274.445 265.134 274.445 275.659V311.963ZM361.99 285.658C361.99 280.923 361.474 268.294 363.544 264.609C363.544 264.079 365.613 263.029 368.724 262.504H370.278C370.794 261.979 370.794 260.399 370.278 259.874C366.65 259.874 364.064 260.404 359.916 260.404C356.293 260.404 352.662 259.874 348.002 259.874C347.481 260.404 346.965 261.979 348.002 262.504H349.555C353.699 263.029 355.252 263.559 355.773 264.609C357.842 267.764 357.842 280.919 357.842 285.658V307.232C357.842 309.337 357.842 311.438 357.326 311.438C352.662 306.707 347.485 301.438 340.751 293.553L330.911 282.503C327.8 278.293 315.89 265.139 313.816 259.878C312.779 259.878 310.709 260.408 309.151 260.408C307.598 260.408 302.417 260.408 297.753 259.878C297.232 260.408 297.232 261.983 297.753 262.508H299.306C301.897 263.034 304.487 263.563 305.524 265.139C307.598 267.243 308.114 269.348 308.114 272.503V301.972C308.114 306.703 308.114 318.803 306.561 322.483C306.04 323.542 304.487 324.597 302.417 324.597L299.306 325.122C298.79 325.647 298.79 327.227 299.823 327.752C302.934 327.227 306.04 327.227 310.184 327.227C313.811 327.227 317.439 327.227 321.582 327.752C322.615 327.227 322.615 325.647 322.099 325.122L318.992 324.597C316.402 324.597 314.328 324.072 313.811 322.483C312.254 319.853 311.737 306.703 311.737 301.972V279.343C311.737 276.713 312.254 274.083 312.254 273.029H312.774C314.848 275.134 321.582 283.553 324.173 286.708L347.481 313.547C356.289 323.546 358.879 327.227 360.433 328.802C361.47 328.802 361.986 328.277 361.986 327.752V285.658H361.99V285.658ZM387.373 311.963C387.373 322.487 386.856 324.072 381.155 324.597L377.528 325.122C377.011 325.647 377.528 327.227 378.044 327.752C383.745 327.227 387.368 327.227 391.512 327.227H400.32C409.644 327.227 418.448 327.227 427.256 327.752C428.809 324.597 431.399 317.227 431.916 313.547C431.399 312.488 429.846 311.963 429.33 312.488C426.739 317.752 424.149 321.433 422.075 322.487C420.001 323.546 416.894 324.072 409.644 324.072C400.836 324.072 398.767 323.012 397.213 321.958C395.656 319.853 395.656 316.702 395.656 311.433V296.703C395.656 294.073 395.656 294.073 398.767 294.073H404.468C408.612 294.073 410.686 294.073 412.239 294.598C414.308 295.124 414.829 296.703 415.345 298.279L416.383 302.493C416.903 303.018 418.452 303.018 418.973 302.493C418.973 299.854 418.452 296.174 418.452 292.489C418.452 288.809 418.973 284.595 418.973 282.494C418.85 282.256 418.665 282.056 418.436 281.917C418.208 281.777 417.945 281.704 417.678 281.704C417.41 281.704 417.147 281.777 416.919 281.917C416.691 282.056 416.505 282.256 416.383 282.494L415.345 286.174C414.829 288.804 414.308 289.33 413.271 289.855C411.718 290.38 408.612 290.38 404.468 290.38H398.767C395.656 290.38 395.656 290.38 395.656 287.75V267.23C395.656 263.55 395.656 263.55 398.246 263.55H405.496C410.16 263.55 413.267 263.55 415.337 264.075C420.517 265.13 421.554 268.81 423.108 273.545C423.628 274.074 425.182 274.074 425.698 273.545C425.182 268.81 424.665 261.445 423.628 259.865C422.591 260.395 416.894 260.395 410.16 260.395H391.516C387.373 260.395 384.262 259.865 379.602 259.865C379.081 260.395 379.081 261.97 379.602 262.495H381.155C386.856 263.55 387.373 265.125 387.373 275.65V311.963V311.963Z" fill="white"/>
<path fill-rule="evenodd" clip-rule="evenodd" d="M453.675 292.498C453.675 242.51 494.083 202 543.294 202C592.502 202 632.389 242.514 632.389 292.498C632.389 342.482 592.502 383 543.294 383C494.083 383 453.675 342.482 453.675 292.498Z" stroke="white" stroke-width="8.3655" stroke-miterlimit="2.613"/>
<path fill-rule="evenodd" clip-rule="evenodd" d="M486.312 293.028C486.312 261.454 511.694 235.67 542.774 235.67C573.858 235.67 599.24 261.454 599.24 293.028C599.24 325.122 573.858 350.376 542.774 350.376C511.694 350.376 486.312 325.122 486.312 293.028Z" fill="white"/>
<path fill-rule="evenodd" clip-rule="evenodd" d="M507.551 329.332V280.923C508.067 270.399 513.248 268.819 513.248 268.819V252.509C513.248 249.879 514.28 249.354 514.28 249.354H519.461C521.014 249.354 521.014 252.509 521.014 252.509L521.531 268.819C528.264 273.029 527.232 280.923 527.232 280.923V329.332C527.748 333.012 523.605 334.071 523.605 334.071H511.174C508.071 333.537 507.551 329.332 507.551 329.332V329.332ZM532.933 329.332V280.923C533.45 270.399 538.63 268.819 538.63 268.819V252.509C538.63 249.879 539.667 249.354 539.667 249.354H544.843C546.401 249.354 546.401 252.509 546.401 252.509V268.819C553.135 273.029 552.619 280.923 552.619 280.923V329.332C552.619 333.012 548.991 334.071 548.991 334.071H536.561C532.933 333.537 532.933 329.332 532.933 329.332V329.332ZM557.804 329.332V280.923C558.32 270.399 564.017 268.819 564.017 268.819V252.509C563.501 249.879 565.05 249.354 565.05 249.354H570.23C571.784 249.354 571.263 252.509 571.263 252.509L571.779 268.819C578.517 273.029 578.001 280.923 578.001 280.923V329.332C578.001 333.012 574.374 334.071 574.374 334.071H561.418C558.32 333.537 557.804 329.332 557.804 329.332Z" fill="#C8693A"/>
<path fill-rule="evenodd" clip-rule="evenodd" d="M669.691 267.243C669.691 263.563 669.691 263.033 672.793 263.033H679.015C683.154 263.033 686.782 263.033 688.856 263.563C694.036 265.138 695.069 268.823 696.106 273.558C696.622 274.087 698.175 274.087 698.175 273.033V259.878H654.153C653.637 259.878 653.112 261.983 654.153 261.983L655.707 262.508C661.403 263.033 661.403 264.613 661.403 275.138V312.492C661.403 323.017 661.403 324.076 655.707 325.126H653.112C652.596 326.176 652.596 327.756 653.112 327.756H679.024C680.056 327.756 680.056 325.651 679.54 325.126H675.913C670.216 324.601 669.7 323.012 669.7 312.492V297.758C669.7 295.128 670.216 295.128 673.318 295.128H680.056C683.684 295.128 686.27 295.128 687.823 295.653C689.901 296.178 690.418 297.758 690.934 299.858L691.967 303.547C692.999 304.072 694.045 304.072 694.561 303.547C694.561 301.434 694.045 297.228 694.045 293.548C694.045 289.863 694.561 285.653 694.561 283.548C694.438 283.311 694.252 283.111 694.023 282.972C693.795 282.833 693.532 282.759 693.264 282.759C692.996 282.759 692.733 282.833 692.505 282.972C692.276 283.111 692.09 283.311 691.967 283.548L690.934 287.233C690.418 289.863 689.901 290.388 688.864 290.913C687.302 291.439 684.2 291.439 680.056 291.439H673.318C670.216 291.439 669.7 291.439 669.7 288.808V267.243H669.691V267.243ZM715.791 311.962C715.791 323.012 715.275 324.071 709.578 325.121H706.983C706.467 326.172 706.467 327.751 706.983 327.751H732.366C732.882 327.751 732.882 325.647 732.366 325.121H729.78C724.083 324.071 724.083 323.008 724.083 311.962V275.658C724.083 264.609 724.083 263.029 729.78 262.504L732.366 261.979C732.882 261.979 732.882 259.874 732.366 259.874H706.983C706.467 259.874 706.467 261.979 706.983 261.979L709.578 262.504C715.275 263.029 715.791 264.609 715.791 275.658V311.962ZM804.37 285.658C804.37 280.923 804.37 268.293 805.932 264.609C806.448 263.558 808.518 263.029 811.629 262.504L813.182 261.979C813.698 261.454 813.698 260.403 812.666 259.874H790.394C789.878 259.874 789.878 261.454 790.394 261.979L791.947 262.504C796.091 263.029 797.644 263.558 798.161 264.609C800.239 267.764 800.239 280.918 800.239 285.658V307.757C800.239 309.862 800.239 311.437 799.723 311.962C795.058 307.232 789.882 301.438 783.14 293.552L773.299 281.973C770.197 278.293 758.278 265.138 756.208 259.874H740.15C739.117 259.874 739.117 261.454 739.634 261.979L741.703 262.504C743.773 262.504 746.368 263.558 747.916 265.134C749.995 267.239 749.995 269.344 749.995 272.499V301.967C749.995 306.698 749.995 319.327 748.433 323.008C748.433 324.067 746.363 324.592 744.294 325.121H741.699C740.666 326.172 741.183 327.226 741.699 327.751H763.97C764.495 327.226 765.012 326.176 763.97 325.121H760.868C758.79 324.596 756.724 324.071 756.204 323.008C754.134 319.853 754.134 306.702 754.134 301.967V279.339C754.134 276.709 754.134 274.079 754.65 273.024C756.72 275.129 763.966 283.548 766.561 286.704L789.873 313.542C798.673 324.067 801.784 327.747 802.821 329.322C803.853 329.322 804.374 328.797 804.899 328.272C804.374 325.642 804.374 313.017 804.374 310.378V285.658H804.37V285.658ZM828.715 312.488C828.715 323.012 828.715 324.071 823.018 325.121H820.432C819.916 326.172 819.916 327.751 820.948 327.751H833.375C837.002 327.751 843.215 328.277 849.958 328.277C857.725 328.277 866.016 327.226 872.23 323.546C883.623 317.227 889.837 306.177 889.837 293.027C889.837 279.343 883.107 267.768 869.635 262.504C862.905 260.399 855.655 259.874 847.363 259.874C838.556 259.874 830.789 259.874 821.981 260.403C820.948 260.928 820.948 262.508 821.981 263.033L824.051 263.563C828.194 264.088 828.715 266.193 828.715 273.558V312.488V312.488ZM837.007 271.978C837.007 267.243 837.523 265.138 838.039 264.084C839.072 263.558 842.183 263.033 847.88 263.033C874.815 263.033 880.001 281.973 880.001 293.027C880.001 312.488 871.193 325.121 851.507 325.121C845.294 325.121 841.146 324.071 839.072 320.907C837.519 318.802 837.002 315.122 837.002 309.858V271.978H837.007V271.978ZM938.536 310.387C938.536 300.388 932.323 294.607 926.11 290.393L917.818 285.658C914.191 283.028 909.527 278.818 909.527 273.028C909.527 268.293 911.605 261.454 921.446 261.454C931.286 261.454 933.872 268.293 934.909 273.028C935.425 273.553 937.504 273.553 937.504 273.028C937.504 268.293 936.988 262.504 935.951 260.403C934.909 260.403 933.872 259.874 932.323 259.874C929.728 258.823 926.11 258.294 922.999 258.294C910.043 258.294 902.281 266.188 902.281 276.183C902.281 284.603 907.978 290.388 913.158 293.552L922.999 299.863C930.249 304.602 931.291 309.862 931.291 314.076C931.291 320.387 927.147 326.176 918.335 326.176C906.941 326.176 902.797 316.177 901.244 310.912C900.727 310.387 899.165 310.387 898.649 310.912C899.165 316.177 900.202 323.012 901.244 325.651C903.313 326.701 908.494 329.331 917.302 329.331C930.245 329.331 938.536 321.437 938.536 310.387Z" fill="white"/>
<path fill-rule="evenodd" clip-rule="evenodd" d="M593.543 355.645L591.985 356.695L593.543 358.795L595.097 357.745L593.543 355.645ZM620.995 301.438V299.862L617.368 299.337V297.232H616.335V299.337L608.053 298.812C606.49 298.287 605.458 299.337 605.458 300.917V302.501H606.49V301.442C607.007 300.392 607.523 299.867 608.053 300.392L616.335 300.917L615.819 303.556H616.852L617.368 300.917L620.995 301.438ZM605.453 304.076L604.937 305.127L611.667 306.702C613.745 307.752 615.294 309.332 614.778 311.433C614.261 314.071 612.183 314.071 610.634 313.546L603.384 311.962L602.867 313.021L610.118 315.126C613.229 315.651 614.782 315.126 615.815 311.962C616.331 310.387 615.815 308.282 614.261 307.757L620.475 309.332L620.991 307.757L605.453 304.076ZM603.388 326.701C606.49 328.276 609.601 328.276 611.155 324.596C612.708 321.432 610.638 318.277 608.053 317.227C604.941 315.651 601.83 316.176 600.277 319.332C598.724 322.487 599.761 324.596 601.83 326.176L602.347 324.6C600.793 323.55 600.277 321.962 601.314 319.861C602.351 317.761 604.941 317.756 607.011 318.286L603.388 326.701V326.701ZM608.048 318.806C610.118 319.857 611.15 321.962 610.118 324.071C609.085 326.176 607.007 326.701 604.937 326.176L608.048 318.806V318.806ZM594.06 327.751L593.027 329.331L600.793 340.906L587.837 335.646L586.805 337.225L595.613 351.426L597.166 349.85L588.883 337.751L602.342 343.531L603.904 341.956L595.613 329.856L608.569 335.646L610.118 333.536L594.06 327.751V327.751ZM582.141 341.431L580.592 342.481L590.432 355.106L591.985 354.056L582.141 341.431V341.431ZM579.038 344.056L576.96 345.116L581.624 353.526C583.186 356.165 582.666 359.316 580.071 360.896C576.96 362.471 575.407 360.896 573.858 358.791L569.193 349.846L567.124 350.896L572.296 359.841C574.374 363.521 576.439 364.572 580.587 362.471C582.666 361.421 583.698 359.316 583.698 357.215L584.731 359.32L586.8 358.795L579.038 344.056V344.056ZM553.656 362.476C554.688 367.215 557.8 370.895 562.98 369.845C568.161 368.27 569.193 363.526 567.644 359.32C566.603 355.106 563.501 351.951 558.837 353.001C554.693 354.051 553.135 356.69 553.135 360.371L555.205 359.845C555.205 357.741 556.237 355.64 558.832 354.581C562.451 353.531 565.045 356.695 565.562 359.32L553.656 362.476V362.476ZM566.087 360.9C566.603 364.055 565.57 367.219 562.459 368.27C559.357 368.795 557.279 366.694 556.246 364.055L566.087 360.9ZM542.258 366.165C542.774 368.795 544.843 369.845 546.918 369.845C550.545 369.32 552.619 366.69 552.098 363.001C552.098 359.845 550.029 356.69 546.401 357.215C545.784 357.217 545.172 357.341 544.603 357.58C544.034 357.819 543.517 358.169 543.083 358.609C542.65 359.049 542.307 359.57 542.076 360.143C541.845 360.716 541.73 361.328 541.737 361.946H543.295C543.295 359.841 544.327 358.791 546.401 358.266C548.992 358.266 550.545 360.896 550.545 362.996C551.061 365.626 549.508 368.261 546.918 368.786C546.116 368.774 545.338 368.515 544.69 368.044C544.042 367.573 543.554 366.914 543.295 366.156H542.258V366.165V366.165ZM533.454 369.32C537.081 369.845 539.151 367.215 539.672 363.53C540.188 360.375 538.635 357.22 535.007 356.695C531.38 356.17 529.306 358.8 528.79 362.48C528.273 365.631 529.827 368.795 533.454 369.32V369.32ZM533.454 368.27C530.864 367.744 529.827 365.106 530.347 362.48C530.347 359.85 531.901 357.749 535.007 357.749C537.598 358.275 538.635 360.905 538.118 363.535C538.125 364.152 538.009 364.765 537.778 365.338C537.547 365.911 537.204 366.432 536.771 366.872C536.337 367.312 535.821 367.662 535.252 367.902C534.683 368.142 534.072 368.267 533.454 368.27V368.27ZM528.273 355.645H526.716L525.162 361.43C524.646 364.06 522.056 365.635 519.986 364.585L519.465 366.169C521.535 366.694 523.093 366.169 524.646 364.055V364.58L523.609 367.219H525.162L528.273 355.645V355.645ZM510.662 355.645C511.699 353.531 513.769 351.43 516.359 352.481C518.949 354.056 518.949 356.695 517.917 358.8C516.88 361.43 515.326 363.005 512.215 361.955C509.625 360.9 509.625 357.745 510.662 355.645V355.645ZM523.609 350.376L522.056 349.325L519.465 355.645C519.465 354.06 518.428 352.481 516.875 351.43C513.764 349.855 510.658 351.955 509.621 355.111C508.067 358.275 508.584 361.43 511.695 363.005C513.248 364.055 515.322 363.53 516.354 362.48H516.875L515.838 364.585L516.875 365.11L523.609 350.376V350.376ZM499.264 355.645C502.375 357.749 505.481 356.695 507.551 354.06C509.104 350.905 509.62 347.75 506.514 345.649C503.403 343.536 500.296 344.59 498.227 347.225C496.673 350.376 496.153 353.531 499.264 355.645ZM499.78 354.581C497.71 353.006 498.227 350.376 499.264 348.271C500.817 346.166 503.407 345.116 505.998 346.695C508.072 348.271 507.555 350.901 505.998 353.006C504.961 355.106 502.375 356.17 499.78 354.581V354.581ZM500.817 341.431L499.78 340.381L495.636 345.12C493.562 346.695 490.972 347.225 489.419 345.12L488.382 346.17C489.939 347.746 492.009 348.275 493.562 347.22L492.009 349.325L492.525 350.376L500.817 341.431V341.431ZM487.87 334.07C489.423 332.486 492.013 333.011 493.05 335.121C494.087 336.171 494.087 337.751 493.05 338.276C491.493 339.851 489.423 337.751 487.349 335.646C487.349 335.646 486.833 335.121 486.312 335.121L487.87 334.07ZM488.902 341.431C487.345 342.481 485.791 341.956 484.759 340.381C483.722 339.33 483.201 337.751 484.759 336.7C485.791 335.65 486.312 336.175 487.345 336.7C489.419 339.33 491.488 341.431 494.079 339.33C496.148 337.755 495.632 335.65 494.079 334.075C493.042 332.491 491.488 331.961 489.935 332.491C490.451 331.44 490.968 330.915 490.451 329.86L489.414 328.81L488.898 329.86C489.414 330.386 489.414 330.911 488.898 331.436L484.234 335.125C481.648 337.23 482.68 339.33 483.717 340.91C485.275 343.015 487.861 344.065 489.935 342.486L488.902 341.431V341.431ZM474.914 334.07L475.951 335.121L479.057 333.536L480.094 335.121L481.127 334.595L480.094 333.011L486.828 328.806C488.382 327.756 488.902 326.701 487.865 325.126L486.828 324.075L485.791 324.6L486.828 325.651C487.345 326.701 486.828 327.226 485.791 327.226L479.057 331.431L478.025 329.327L476.988 330.377L478.025 332.482L474.914 334.07ZM486.833 323.012L485.796 321.962L475.435 326.701L475.951 328.276L486.833 323.012ZM473.881 329.331L473.365 327.756L471.295 328.806L471.812 330.381L473.881 329.331ZM471.807 319.857C473.36 323.546 476.472 324.071 479.578 323.012C482.689 321.962 484.759 318.806 483.722 315.651C482.168 311.962 479.057 311.437 475.951 312.487C472.844 313.546 470.77 316.701 471.807 319.857ZM473.36 319.332C472.328 316.701 473.877 314.601 476.472 313.546C478.541 313.021 481.652 313.021 482.689 315.651C483.205 318.281 481.652 320.907 479.062 321.436C476.988 322.487 474.397 321.962 473.36 319.332ZM481.131 308.282L480.615 307.232L473.881 308.282C471.812 308.282 469.738 307.232 469.738 305.127C469.221 302.497 470.775 301.972 472.328 301.438L479.578 300.387V298.812L472.328 299.862C469.217 300.387 467.664 301.976 468.184 305.127C468.701 306.702 469.738 308.282 471.295 308.282V308.807H469.221V310.382L481.131 308.282V308.282ZM465.073 281.973V283.552L468.18 284.078V285.657L469.217 286.183L469.733 284.078L477.504 285.128C479.574 285.657 480.094 285.128 480.611 283.023V281.968L479.053 281.443V283.019C479.053 283.544 478.537 284.069 477.5 283.544L469.729 282.493L470.249 280.384L468.692 279.859V282.489L465.073 281.973ZM480.615 280.393L481.131 279.343L474.397 277.238C472.328 276.713 470.77 275.133 471.291 272.503C472.328 270.398 473.877 270.398 475.435 270.927L482.689 272.503L483.205 271.448L475.951 269.343C473.361 268.814 471.291 269.343 470.254 272.498C469.733 274.078 470.254 275.654 471.807 276.708L465.59 275.128L465.073 276.179L480.615 280.393V280.393ZM483.205 257.768C480.615 256.193 476.988 256.193 475.435 259.348C473.36 263.029 475.435 265.663 478.541 267.243C481.131 268.293 484.759 268.293 486.312 265.138C487.349 262.508 486.833 260.403 484.759 258.298L484.238 259.878C485.275 260.932 485.796 262.508 485.275 264.613C484.646 265.492 483.7 266.093 482.636 266.289C481.573 266.485 480.475 266.26 479.574 265.663L483.205 257.768V257.768ZM478.541 265.138C476.472 264.083 475.435 261.983 476.472 259.878C477.509 257.773 479.578 257.773 481.652 258.298L478.541 265.138V265.138ZM492.009 257.243L493.567 255.668L485.796 244.089L498.743 249.353L499.78 247.773L490.976 233.564L489.939 235.144L497.71 247.248L484.759 241.459L483.205 243.039L490.976 255.143L478.025 249.353L476.472 250.929L492.009 257.243V257.243ZM494.083 229.359L495.636 228.309L494.083 226.199L492.53 227.254L494.083 229.359V229.359ZM504.961 244.089L506.518 243.039L496.673 229.884L495.12 231.464L504.961 244.089V244.089ZM508.072 241.459L509.625 240.408L505.481 231.989C503.924 229.359 504.444 226.199 507.555 224.624C510.141 223.049 511.699 224.624 513.252 227.254L517.917 236.199L519.47 235.148L514.81 226.204C512.736 222.523 510.666 220.944 506.523 223.049C504.965 224.099 503.412 226.729 503.932 228.309H503.416L502.384 226.199L500.826 227.254L508.072 241.459V241.459ZM533.454 223.569C532.417 219.359 529.31 215.15 524.13 216.729C519.465 217.784 518.428 222.519 519.465 226.729C520.502 230.939 523.609 234.094 528.273 233.044C532.417 231.989 533.97 229.363 533.454 225.679L531.896 226.204C531.896 228.838 530.864 230.939 527.753 231.468C524.13 232.518 522.056 229.363 521.535 226.733L533.454 223.569V223.569ZM521.019 225.149C520.502 221.994 521.535 218.834 524.646 218.309C527.753 217.259 530.347 219.359 530.864 222.519L521.019 225.149V225.149ZM545.369 220.939C544.848 218.309 542.778 216.729 540.188 216.729C537.081 217.259 535.007 219.885 535.007 223.569C535.007 226.724 537.081 229.359 540.704 229.359C543.295 229.359 545.369 227.779 545.369 224.624H543.811C543.811 226.729 542.258 228.309 540.7 228.309C538.114 228.309 536.556 225.674 536.556 223.574C536.556 220.939 537.593 218.314 540.184 218.314C542.258 218.314 543.295 219.364 543.811 220.944H545.369V220.939V220.939ZM553.656 217.784C550.029 217.259 547.955 219.889 547.438 223.044C546.918 226.724 548.475 229.359 552.098 229.884C555.209 230.409 557.799 227.779 558.32 224.624C558.841 221.469 557.279 218.309 553.656 217.784V217.784ZM553.656 218.834C556.242 219.359 557.274 221.989 556.758 224.624C556.242 226.729 554.688 229.359 552.098 228.834C549.512 228.309 548.475 225.674 548.475 223.574C548.992 220.939 550.549 218.309 553.656 218.834V218.834ZM558.837 230.934L560.39 231.464L561.943 225.674C562.459 223.044 565.054 221.994 567.133 223.044L567.649 221.464C565.57 220.935 564.022 221.464 562.459 223.044L563.501 220.41L561.939 219.885L558.837 230.934V230.934ZM575.927 231.464C574.895 233.569 572.825 235.674 570.23 234.619C567.644 233.039 567.644 230.409 568.677 228.304C569.71 225.67 571.779 224.094 574.374 225.145C576.96 226.729 576.96 229.359 575.927 231.464V231.464ZM562.98 236.724L564.533 237.253L567.128 231.464C567.128 233.039 568.161 234.619 569.714 235.674C572.825 237.253 575.927 235.148 576.964 231.989C578.526 229.359 578.006 225.674 574.895 224.099C573.341 223.574 571.267 223.574 570.23 224.624L570.747 223.049L569.714 221.994L562.98 236.724V236.724ZM587.321 231.464C584.219 229.359 581.108 230.934 579.038 233.569C576.96 236.199 576.96 239.883 580.071 241.988C582.666 244.093 585.768 242.513 587.837 239.883C589.916 237.249 589.916 233.564 587.321 231.464ZM586.289 232.514C588.883 234.094 588.367 237.249 586.805 239.354C585.252 240.934 582.666 242.509 580.592 240.934C578.522 239.354 579.038 236.199 580.075 234.094C581.624 232.514 584.219 230.934 586.289 232.514ZM585.252 245.669L586.284 246.719L590.948 242.509C592.502 240.404 595.092 240.404 596.645 242.509L597.687 241.459C596.125 239.883 594.576 239.354 592.497 240.408L594.576 238.304L593.543 237.253L585.252 245.669ZM598.208 253.563C596.129 255.143 594.064 254.613 593.027 252.508C591.985 251.458 591.985 249.878 593.027 249.353C595.097 247.773 596.645 250.404 598.208 251.983C598.724 251.983 599.24 252.508 599.761 252.508L598.208 253.563ZM597.166 246.719C598.728 245.669 600.277 246.194 601.31 247.244C602.342 248.824 602.872 250.404 601.31 251.454C600.277 251.979 599.756 251.979 598.724 250.929C596.645 248.824 594.58 246.194 591.985 248.299C590.432 249.353 590.432 251.454 591.985 253.559C593.027 255.138 594.58 255.664 596.129 255.138C595.097 256.189 594.576 256.714 595.613 257.768C595.613 258.294 596.129 258.294 596.129 258.823L597.162 257.768H596.645C596.645 257.243 596.645 256.718 597.162 256.193L601.826 252.508C604.421 250.933 603.388 248.299 602.342 246.719C600.789 244.614 598.724 244.089 596.645 245.669L597.166 246.719V246.719ZM610.634 253.563L609.601 251.983L607.007 254.088L605.974 251.983L604.941 253.034L605.974 254.613L598.724 258.823C597.162 259.873 597.162 260.403 598.208 262.503C598.208 262.503 598.724 263.029 598.724 263.558L599.756 262.503C599.756 262.503 599.24 261.978 599.24 261.453C598.724 260.928 599.24 260.403 599.756 259.873L606.486 255.664L607.519 257.768L608.56 257.243L607.519 255.138L610.634 253.563V253.563ZM599.24 264.083L599.756 265.663L610.118 260.403L609.601 259.348L599.24 264.083ZM611.671 258.294L612.187 259.348L614.266 258.294L613.749 257.243L611.671 258.294ZM613.745 268.293C612.704 264.613 609.081 263.558 605.97 264.613C602.867 265.663 600.789 268.823 601.826 271.978C603.388 275.658 606.49 276.188 609.601 275.133C612.704 274.083 614.782 271.448 613.745 268.293ZM612.704 268.293C613.229 270.927 611.671 273.028 609.085 274.083C607.007 274.608 603.904 274.083 603.388 271.448C602.347 269.343 603.904 266.713 606.49 266.188C609.085 265.138 611.671 265.663 612.704 268.293V268.293ZM604.421 278.818L604.937 280.393L611.667 279.343C613.745 279.343 615.81 280.393 615.81 282.502C616.327 284.607 614.778 285.657 612.699 286.183L605.97 286.708V288.287L613.229 287.237C615.815 286.708 617.368 285.657 617.368 282.502C616.852 280.922 615.815 279.343 614.266 278.818H616.335V277.238L604.421 278.818V278.818Z" fill="white"/>
</svg>
