<svg id="Слой_1" data-name="Слой 1" xmlns="http://www.w3.org/2000/svg" viewBox="0 0 30 30"><defs><style>.cls-1{fill:#fff;}.cls-2{fill:#1a1513;}</style></defs><circle class="cls-1" cx="15" cy="15" r="15"/><path class="cls-2" d="M19.88,10.67H18.25v-.54a3.25,3.25,0,1,0-6.5,0v.54H10.13A1.63,1.63,0,0,0,8.5,12.29v8.13a2.72,2.72,0,0,0,2.71,2.71h7.58a2.72,2.72,0,0,0,2.71-2.71V12.29A1.63,1.63,0,0,0,19.88,10.67Zm-7-.54a2.17,2.17,0,0,1,4.34,0v.54H12.83Zm7.59,10.29A1.63,1.63,0,0,1,18.79,22H11.21a1.63,1.63,0,0,1-1.63-1.62V12.29a.55.55,0,0,1,.55-.54h1.62v1.63a.54.54,0,1,0,1.08,0V11.75h4.34v1.63a.54.54,0,1,0,1.08,0V11.75h1.63a.54.54,0,0,1,.54.54Z"/></svg>