<svg id="Слой_1" data-name="Слой 1" xmlns="http://www.w3.org/2000/svg" viewBox="0 0 80 60.13"><defs><style>.cls-1{fill:#c8693a;}</style></defs><path class="cls-1" d="M5.07,0H74.93A5.07,5.07,0,0,1,80,5.07h0a5.07,5.07,0,0,1-5.07,5.06H5.07A5.07,5.07,0,0,1,0,5.07H0A5.07,5.07,0,0,1,5.07,0Z"/><path class="cls-1" d="M5.07,25H74.93A5.07,5.07,0,0,1,80,30.07h0a5.07,5.07,0,0,1-5.07,5.06H5.07A5.07,5.07,0,0,1,0,30.07H0A5.07,5.07,0,0,1,5.07,25Z"/><rect class="cls-1" y="50" width="80" height="10.13" rx="5.06"/></svg>