<svg id="Слой_1" data-name="Слой 1" xmlns="http://www.w3.org/2000/svg" viewBox="0 0 85 85"><defs><style>.cls-1{fill:none;}.cls-2{fill:#c8693a;}</style></defs><rect class="cls-1" width="85" height="85"/><path class="cls-2" d="M51.07,21.29H33.92A12.66,12.66,0,0,0,21.29,33.93V51.07A12.65,12.65,0,0,0,33.93,63.71H51.07A12.65,12.65,0,0,0,63.71,51.07V33.93A12.65,12.65,0,0,0,51.07,21.29ZM42.5,53.47a11,11,0,1,1,11-11A11,11,0,0,1,42.5,53.47Zm11-19.18a2.63,2.63,0,1,1,2.63-2.63,2.63,2.63,0,0,1-2.63,2.63Z"/></svg>