<svg id="Слой_3" data-name="Слой 3" xmlns="http://www.w3.org/2000/svg" viewBox="0 0 26 26"><defs><style>.cls-1{fill:#c8693a;}</style></defs><path class="cls-1" d="M25.25.75v24.5H.75V.75h24.5M26,0H0V26H26V0Z" transform="translate(0 0)"/><path class="cls-1" d="M16.08,5.38H9.92A4.54,4.54,0,0,0,5.38,9.92v6.16a4.54,4.54,0,0,0,4.54,4.54h6.16a4.54,4.54,0,0,0,4.54-4.54V9.92A4.54,4.54,0,0,0,16.08,5.38ZM13,16.94A3.94,3.94,0,1,1,16.94,13,3.95,3.95,0,0,1,13,16.94ZM17,10a.95.95,0,0,1,0-1.89A.95.95,0,1,1,17,10Z" transform="translate(0 0)"/></svg>