<svg id="Слой_4" data-name="Слой 4" xmlns="http://www.w3.org/2000/svg" viewBox="0 0 26 26"><defs><style>.cls-1{fill:#1a1513;}.cls-2,.cls-3{fill:#c8693a;}.cls-3{fill-rule:evenodd;}</style></defs><rect class="cls-1" width="26" height="26"/><path class="cls-2" d="M25.25.75v24.5H.75V.75h24.5M26,0H0V26H26V0Z"/><path class="cls-3" d="M20.81,8.23a6.68,6.68,0,0,1-1.84.5A3.18,3.18,0,0,0,20.38,7a6.56,6.56,0,0,1-2,.77,3.25,3.25,0,0,0-2.35-1A3.17,3.17,0,0,0,12.8,9.9a3.55,3.55,0,0,0,.08.73,9.17,9.17,0,0,1-6.6-3.3,3.18,3.18,0,0,0-.43,1.59,3.14,3.14,0,0,0,1.42,2.62,3.23,3.23,0,0,1-1.45-.39v0A3.12,3.12,0,0,0,6,12.33a3.18,3.18,0,0,0,2.35,1.95,3.34,3.34,0,0,1-.84.11,2.91,2.91,0,0,1-.6-.06,3.17,3.17,0,0,0,3,2.19,6.49,6.49,0,0,1-4,1.36,6.64,6.64,0,0,1-.77-.05,9.24,9.24,0,0,0,4.92,1.41A8.92,8.92,0,0,0,19,12.18a8.36,8.36,0,0,0,.22-1.91c0-.13,0-.27,0-.41a6.36,6.36,0,0,0,1.6-1.63Z"/></svg>