<svg id="Слой_1" data-name="Слой 1" xmlns="http://www.w3.org/2000/svg" viewBox="0 0 85 85"><defs><style>.cls-1{fill:none;}.cls-2{fill:#c8693a;fill-rule:evenodd;}</style></defs><rect class="cls-1" width="85" height="85"/><path class="cls-2" d="M48.92,42.1,38.51,47.7V36.44L43.22,39Zm12.46-7.63s-.38-2.79-1.53-4A5.44,5.44,0,0,0,56,28.78c-5.4-.4-13.48-.4-13.48-.4h0s-8.08,0-13.48.4a5.39,5.39,0,0,0-3.87,1.7c-1.15,1.22-1.51,4-1.51,4a58.61,58.61,0,0,0-.4,6.5v3a59.24,59.24,0,0,0,.4,6.51s.36,2.76,1.51,4a6.38,6.38,0,0,0,4.27,1.73c3.07.29,13.1.4,13.1.4s8.08,0,13.48-.43a5.36,5.36,0,0,0,3.87-1.71c1.15-1.22,1.53-4,1.53-4A63.82,63.82,0,0,0,61.75,44V41a61.43,61.43,0,0,0-.38-6.5Z"/></svg>