<svg id="Слой_1" data-name="Слой 1" xmlns="http://www.w3.org/2000/svg" viewBox="0 0 38.54 28.25"><defs><style>.cls-1{fill:#010101;fill-rule:evenodd;}</style></defs><path class="cls-1" d="M48.93,42.09,38.52,47.7V36.43L43.22,39Zm12.46-7.62s-.38-2.79-1.53-4A5.43,5.43,0,0,0,56,28.77c-5.4-.4-13.48-.4-13.48-.4h0s-8.08,0-13.48.4a5.42,5.42,0,0,0-3.87,1.71c-1.15,1.22-1.51,4-1.51,4a60.74,60.74,0,0,0-.4,6.5v3a61,61,0,0,0,.4,6.51s.36,2.76,1.51,4a6.38,6.38,0,0,0,4.27,1.73c3.07.3,13.1.4,13.1.4s8.08,0,13.48-.42a5.41,5.41,0,0,0,3.87-1.71c1.15-1.22,1.53-4,1.53-4A64.21,64.21,0,0,0,61.77,44V41a63.88,63.88,0,0,0-.38-6.5Z" transform="translate(-23.23 -28.37)"/></svg>